<svg xmlns="http://www.w3.org/2000/svg" xmlns:xlink="http://www.w3.org/1999/xlink" width="115" height="30.313" viewBox="0 0 115 30.313">
  <defs>
    <clipPath id="clip-path">
      <rect width="115" height="30.314" fill="none"/>
    </clipPath>
  </defs>
  <g id="accenture" transform="translate(0 0)" clip-path="url(#clip-path)">
    <path id="Trazado_1980" data-name="Trazado 1980" d="M687.206,532.569v3.424l6.621,2.587-6.621,2.461v3.526l11.339-4.592v-2.84Z" transform="translate(-623.639 -532.568)"/>
    <g id="Grupo_2184" data-name="Grupo 2184">
      <g id="Grupo_2183" data-name="Grupo 2183" clip-path="url(#clip-path)">
        <path id="Trazado_1981" data-name="Trazado 1981" d="M599.723,568.558c-2.384,0-4.363-1.217-4.363-3.906V564.5c0-3.273,2.84-4.339,6.266-4.339h1.649v-.633c0-1.319-.583-2.132-1.953-2.132a1.821,1.821,0,0,0-2,1.725h-3.551c.253-2.943,2.587-4.389,5.733-4.389,3.2,0,5.479,1.37,5.479,4.668v8.878h-3.627v-1.522a4.2,4.2,0,0,1-3.628,1.8m3.551-4.693V562.6H601.8c-1.826,0-2.764.508-2.764,1.7v.127c0,.913.559,1.548,1.8,1.548a2.185,2.185,0,0,0,2.435-2.106m12.1,4.693c-3.677,0-6.341-2.283-6.341-6.773v-.177c0-4.49,2.84-6.875,6.367-6.875,3.019,0,5.5,1.522,5.81,5h-3.552c-.228-1.293-.887-2.13-2.181-2.13-1.574,0-2.664,1.242-2.664,3.856v.406c0,2.69.963,3.906,2.689,3.906a2.483,2.483,0,0,0,2.409-2.384h3.375c-.254,3.018-2.309,5.174-5.911,5.174m13.8,0c-3.678,0-6.341-2.283-6.341-6.773v-.177c0-4.49,2.84-6.875,6.367-6.875,3.019,0,5.505,1.522,5.81,5H631.46c-.228-1.293-.887-2.13-2.181-2.13-1.574,0-2.664,1.242-2.664,3.856v.406c0,2.69.964,3.906,2.689,3.906a2.484,2.484,0,0,0,2.41-2.384h3.374c-.254,3.018-2.309,5.174-5.911,5.174m13.9,0c-3.831,0-6.443-2.283-6.443-6.7v-.253c0-4.439,2.765-6.875,6.316-6.875,3.3,0,6.063,1.852,6.063,6.24v1.6h-8.625c.152,2.384,1.167,3.3,2.765,3.3a2.291,2.291,0,0,0,2.436-1.725h3.424c-.406,2.511-2.46,4.414-5.935,4.414m-2.638-8.447h4.971c-.076-1.953-.964-2.79-2.436-2.79-1.166,0-2.232.633-2.536,2.79m10.858-5.1H655v1.978a4.319,4.319,0,0,1,4.009-2.258c2.41,0,4.008,1.446,4.008,4.668v8.878h-3.7v-8.32c0-1.547-.633-2.233-1.978-2.233A2.22,2.22,0,0,0,655,560.187v8.092h-3.7ZM669.947,551v4.009h2.537v2.764h-2.537v6.291c0,.99.456,1.447,1.318,1.447a3.2,3.2,0,0,0,1.294-.228v2.892a7.575,7.575,0,0,1-2.081.279c-2.891,0-4.261-1.319-4.261-4.009v-6.671H664.67v-2.764h1.548v-2.487Zm16.491,17.275h-3.7v-1.953a4.042,4.042,0,0,1-3.856,2.232c-2.384,0-4.135-1.446-4.135-4.566v-8.979h3.73v8.422c0,1.521.608,2.232,1.928,2.232a2.232,2.232,0,0,0,2.333-2.461v-8.193h3.7Zm2.69-13.266h3.7v2.435a3.958,3.958,0,0,1,3.983-2.612v3.652c-2.512,0-3.983.761-3.983,2.968v6.823h-3.7Zm15.3,13.545c-3.831,0-6.443-2.283-6.443-6.7v-.253c0-4.439,2.764-6.875,6.315-6.875,3.3,0,6.064,1.852,6.064,6.24v1.6h-8.624c.152,2.384,1.165,3.3,2.764,3.3a2.293,2.293,0,0,0,2.436-1.725h3.424c-.406,2.511-2.46,4.414-5.936,4.414m-2.639-8.447h4.973c-.077-1.953-.965-2.79-2.435-2.79-1.168,0-2.232.633-2.538,2.79" transform="translate(-595.36 -538.244)"/>
      </g>
    </g>
  </g>
</svg>
