<svg xmlns="http://www.w3.org/2000/svg" width="223.712" height="232.022" viewBox="0 0 223.712 232.022">
  <g id="Grupo_2188" data-name="Grupo 2188" transform="translate(10374 12705.049)">
    <path id="Trazado_1903" data-name="Trazado 1903" d="M420.217,288.734l-63.332-36.565c-1.883-1.087-1.647-2.986.527-4.242l102.107-59.2a8.165,8.165,0,0,1,7.345-.3L530.2,224.99c1.883,1.087,1.647,2.986-.527,4.241l-102.108,59.2A8.163,8.163,0,0,1,420.217,288.734Z" transform="translate(-10681.756 -12777.51)" fill="#8295b4"/>
    <g id="Grupo_2172" data-name="Grupo 2172" transform="translate(-10331.607 -12705.049)">
      <path id="Trazado_1904" data-name="Trazado 1904" d="M453.948,76.775,398.442,43.432a7.471,7.471,0,0,0-7.084-.619v0l-5.278,1.917H390.1a15.186,15.186,0,0,0-1.772,4.6L358.984,183.948c-1.663,7.627,1.446,16.488,6.944,19.79l55.506,33.343a9.176,9.176,0,0,0,1.772.826l-2.191,3.342,4.651-1.619h0c2.735-1.222,4.954-4.193,5.881-8.449L460.892,96.565C462.555,88.938,459.446,80.078,453.948,76.775Z" transform="translate(-350.757 -42.19)" fill="#173d7a"/>
      <path id="Trazado_1905" data-name="Trazado 1905" d="M411.612,241.216l-55.507-33.343c-5.5-3.3-8.606-12.163-6.944-19.79L378.51,53.468c1.663-7.627,7.467-11.133,12.965-7.829l55.507,33.343c5.5,3.3,8.606,12.163,6.944,19.789L424.577,233.386C422.915,241.013,417.109,244.519,411.612,241.216Z" transform="translate(-348.713 -42.649)" fill="#d4ecff"/>
      <path id="Trazado_1906" data-name="Trazado 1906" d="M412.511,238.462l-54.2-32.56c-4.275-2.568-6.692-9.457-5.4-15.387L382.1,56.641c1.292-5.93,5.806-8.656,10.081-6.089l54.2,32.56c4.275,2.568,6.692,9.458,5.4,15.388L422.593,232.374C421.3,238.3,416.786,241.03,412.511,238.462Z" transform="translate(-349.514 -43.729)" fill="#fff"/>
    </g>
    <g id="Grupo_2173" data-name="Grupo 2173" transform="translate(-10306.722 -12685.021)">
      <path id="Trazado_1907" data-name="Trazado 1907" d="M420.752,84.388l-6.184-3.57a1.769,1.769,0,0,1-.755-1.831h0a.861.861,0,0,1,1.323-.632l6.184,3.57a1.769,1.769,0,0,1,.755,1.832h0A.861.861,0,0,1,420.752,84.388Z" transform="translate(-387.134 -69.711)" fill="#d4ecff"/>
      <path id="Trazado_1908" data-name="Trazado 1908" d="M438.581,94.682l-9.119-5.265a1.767,1.767,0,0,1-.754-1.831h0a.86.86,0,0,1,1.323-.632l9.119,5.265a1.767,1.767,0,0,1,.754,1.831h0A.86.86,0,0,1,438.581,94.682Z" transform="translate(-390.233 -71.5)" fill="#d4ecff"/>
      <path id="Trazado_1909" data-name="Trazado 1909" d="M407.141,120.836l-6.184-3.571a1.769,1.769,0,0,1-.755-1.831h0a.861.861,0,0,1,1.323-.632l6.184,3.571a1.768,1.768,0,0,1,.755,1.831h0A.861.861,0,0,1,407.141,120.836Z" transform="translate(-384.303 -77.294)" fill="#d4ecff"/>
      <path id="Trazado_1910" data-name="Trazado 1910" d="M422.95,129.963l-9.118-5.264a1.769,1.769,0,0,1-.755-1.831h0a.861.861,0,0,1,1.323-.632l9.118,5.264a1.769,1.769,0,0,1,.755,1.831h0A.861.861,0,0,1,422.95,129.963Z" transform="translate(-386.981 -78.841)" fill="#d4ecff"/>
      <path id="Trazado_1911" data-name="Trazado 1911" d="M398.328,78.826l-3.862-2.231a1.768,1.768,0,0,1-.755-1.831h0a.86.86,0,0,1,1.323-.632l3.863,2.231a1.767,1.767,0,0,1,.755,1.831h0A.861.861,0,0,1,398.328,78.826Z" transform="translate(-382.952 -68.833)" fill="#d4ecff"/>
      <path id="Trazado_1912" data-name="Trazado 1912" d="M411.276,93.685l-11.8-6.814a1.77,1.77,0,0,1-.755-1.831h0a.861.861,0,0,1,1.323-.632l11.8,6.815a1.767,1.767,0,0,1,.754,1.831h0A.86.86,0,0,1,411.276,93.685Z" transform="translate(-383.994 -70.971)" fill="#d4ecff"/>
      <path id="Trazado_1913" data-name="Trazado 1913" d="M400.328,102.133l-3.863-2.23a1.771,1.771,0,0,1-.755-1.832h0a.861.861,0,0,1,1.323-.631l3.863,2.23a1.769,1.769,0,0,1,.755,1.831h0A.861.861,0,0,1,400.328,102.133Z" transform="translate(-383.368 -73.682)" fill="#d4ecff"/>
      <path id="Trazado_1914" data-name="Trazado 1914" d="M425.145,146l-10.318-5.957a1.769,1.769,0,0,1-.755-1.832h0a.861.861,0,0,1,1.323-.631l10.318,5.957a1.769,1.769,0,0,1,.755,1.831h0A.861.861,0,0,1,425.145,146Z" transform="translate(-387.188 -82.033)" fill="#d4ecff"/>
      <path id="Trazado_1915" data-name="Trazado 1915" d="M395.936,114.366l-2.48-1.432a1.769,1.769,0,0,1-.755-1.831h0a.86.86,0,0,1,1.323-.631l2.48,1.431a1.771,1.771,0,0,1,.755,1.832h0A.861.861,0,0,1,395.936,114.366Z" transform="translate(-382.742 -76.393)" fill="#d4ecff"/>
      <path id="Trazado_1916" data-name="Trazado 1916" d="M393.528,127.744l-3.079-1.778a1.767,1.767,0,0,1-.755-1.831h0a.861.861,0,0,1,1.323-.632l3.079,1.778a1.771,1.771,0,0,1,.755,1.832h0A.861.861,0,0,1,393.528,127.744Z" transform="translate(-382.116 -79.104)" fill="#d4ecff"/>
      <path id="Trazado_1917" data-name="Trazado 1917" d="M407.33,135.713l-8.118-4.688a1.769,1.769,0,0,1-.755-1.831h0a.861.861,0,0,1,1.323-.632l8.118,4.688a1.767,1.767,0,0,1,.755,1.831h0A.861.861,0,0,1,407.33,135.713Z" transform="translate(-383.939 -80.157)" fill="#d4ecff"/>
      <path id="Trazado_1918" data-name="Trazado 1918" d="M394.781,135.852l-5.837-3.371a1.768,1.768,0,0,1-.755-1.831h0a.861.861,0,0,1,1.323-.632l5.837,3.371a1.768,1.768,0,0,1,.755,1.831h0A.861.861,0,0,1,394.781,135.852Z" transform="translate(-381.803 -80.46)" fill="#d4ecff"/>
      <path id="Trazado_1919" data-name="Trazado 1919" d="M438.05,153.481l-3.749-2.164a1.771,1.771,0,0,1-.755-1.832h0a.861.861,0,0,1,1.323-.631l3.748,2.164a1.767,1.767,0,0,1,.755,1.831h0A.86.86,0,0,1,438.05,153.481Z" transform="translate(-391.239 -84.378)" fill="#d4ecff"/>
      <path id="Trazado_1920" data-name="Trazado 1920" d="M416.776,111.63l-10.318-5.957a1.769,1.769,0,0,1-.755-1.831h0a.861.861,0,0,1,1.323-.632l10.318,5.957A1.767,1.767,0,0,1,418.1,111h0A.861.861,0,0,1,416.776,111.63Z" transform="translate(-385.447 -74.882)" fill="#d4ecff"/>
      <path id="Trazado_1921" data-name="Trazado 1921" d="M415.952,103.769,397.969,93.387a1.771,1.771,0,0,1-.755-1.832h0a.861.861,0,0,1,1.323-.631l17.983,10.383a1.767,1.767,0,0,1,.754,1.831h0A.86.86,0,0,1,415.952,103.769Z" transform="translate(-383.681 -72.326)" fill="#d4ecff"/>
      <path id="Trazado_1922" data-name="Trazado 1922" d="M405.278,112.376l-10.318-5.957a1.771,1.771,0,0,1-.755-1.832h0a.86.86,0,0,1,1.323-.631l10.318,5.957a1.769,1.769,0,0,1,.755,1.831h0A.861.861,0,0,1,405.278,112.376Z" transform="translate(-383.055 -75.037)" fill="#d4ecff"/>
      <path id="Trazado_1923" data-name="Trazado 1923" d="M428.384,118.331l-3.749-2.164a1.769,1.769,0,0,1-.755-1.831h0a.861.861,0,0,1,1.323-.632l3.749,2.164a1.768,1.768,0,0,1,.754,1.831h0A.86.86,0,0,1,428.384,118.331Z" transform="translate(-389.228 -77.066)" fill="#d4ecff"/>
      <path id="Trazado_1924" data-name="Trazado 1924" d="M463.727,108.343l-3.749-2.164a1.768,1.768,0,0,1-.754-1.831h0a.86.86,0,0,1,1.323-.632l3.749,2.164a1.769,1.769,0,0,1,.755,1.831h0A.861.861,0,0,1,463.727,108.343Z" transform="translate(-396.581 -74.988)" fill="#d4ecff"/>
      <path id="Trazado_1925" data-name="Trazado 1925" d="M404.355,126.611l-12.4-7.161a1.768,1.768,0,0,1-.755-1.831h0a.86.86,0,0,1,1.323-.631l12.4,7.16a1.769,1.769,0,0,1,.754,1.832h0A.86.86,0,0,1,404.355,126.611Z" transform="translate(-382.429 -77.749)" fill="#d4ecff"/>
      <path id="Trazado_1926" data-name="Trazado 1926" d="M405.087,75.344l-9.118-5.265a1.768,1.768,0,0,1-.755-1.831h0a.861.861,0,0,1,1.323-.632l9.118,5.265a1.769,1.769,0,0,1,.755,1.831h0A.861.861,0,0,1,405.087,75.344Z" transform="translate(-383.265 -67.477)" fill="#d4ecff"/>
      <path id="Trazado_1927" data-name="Trazado 1927" d="M391.489,141.336l-10.561-6.1a1.771,1.771,0,0,1-.755-1.832h0a.861.861,0,0,1,1.323-.631l10.56,6.1a1.766,1.766,0,0,1,.755,1.831h0A.86.86,0,0,1,391.489,141.336Z" transform="translate(-380.136 -81.033)" fill="#d4ecff"/>
    </g>
    <g id="Grupo_2174" data-name="Grupo 2174" transform="translate(-10322.654 -12605.719)">
      <path id="Trazado_1928" data-name="Trazado 1928" d="M400.635,184.524l-6.184-3.57a1.767,1.767,0,0,1-.755-1.831h0a.861.861,0,0,1,1.323-.632l6.184,3.571a1.769,1.769,0,0,1,.755,1.831h0A.86.86,0,0,1,400.635,184.524Z" transform="translate(-367.017 -169.848)" fill="#d4ecff"/>
      <path id="Trazado_1929" data-name="Trazado 1929" d="M418.464,194.818l-9.119-5.264a1.771,1.771,0,0,1-.755-1.832h0a.861.861,0,0,1,1.323-.631l9.118,5.264a1.768,1.768,0,0,1,.755,1.831h0A.86.86,0,0,1,418.464,194.818Z" transform="translate(-370.116 -171.637)" fill="#d4ecff"/>
      <path id="Trazado_1930" data-name="Trazado 1930" d="M387.024,220.972l-6.184-3.57a1.769,1.769,0,0,1-.755-1.832h0a.861.861,0,0,1,1.323-.631l6.184,3.57a1.769,1.769,0,0,1,.755,1.831h0A.861.861,0,0,1,387.024,220.972Z" transform="translate(-364.185 -177.431)" fill="#d4ecff"/>
      <path id="Trazado_1931" data-name="Trazado 1931" d="M402.833,230.1l-9.118-5.265a1.768,1.768,0,0,1-.755-1.831h0a.86.86,0,0,1,1.323-.632l9.119,5.265a1.769,1.769,0,0,1,.755,1.831h0A.861.861,0,0,1,402.833,230.1Z" transform="translate(-366.864 -178.977)" fill="#d4ecff"/>
      <path id="Trazado_1932" data-name="Trazado 1932" d="M378.211,178.962l-3.863-2.23a1.769,1.769,0,0,1-.754-1.832h0a.86.86,0,0,1,1.323-.631l3.863,2.23a1.769,1.769,0,0,1,.755,1.831h0A.861.861,0,0,1,378.211,178.962Z" transform="translate(-362.835 -168.97)" fill="#d4ecff"/>
      <path id="Trazado_1933" data-name="Trazado 1933" d="M391.158,193.821l-11.8-6.815a1.769,1.769,0,0,1-.755-1.831h0a.861.861,0,0,1,1.323-.632l11.8,6.815a1.768,1.768,0,0,1,.755,1.831h0A.861.861,0,0,1,391.158,193.821Z" transform="translate(-363.877 -171.107)" fill="#d4ecff"/>
      <path id="Trazado_1934" data-name="Trazado 1934" d="M380.211,202.269l-3.863-2.23a1.768,1.768,0,0,1-.755-1.831h0a.861.861,0,0,1,1.323-.632l3.862,2.23a1.769,1.769,0,0,1,.755,1.832h0A.86.86,0,0,1,380.211,202.269Z" transform="translate(-363.251 -173.819)" fill="#d4ecff"/>
      <path id="Trazado_1935" data-name="Trazado 1935" d="M405.028,246.135l-10.318-5.957a1.767,1.767,0,0,1-.754-1.831h0a.86.86,0,0,1,1.323-.632l10.318,5.957a1.768,1.768,0,0,1,.755,1.831h0A.86.86,0,0,1,405.028,246.135Z" transform="translate(-367.071 -182.169)" fill="#d4ecff"/>
      <path id="Trazado_1936" data-name="Trazado 1936" d="M375.819,214.5l-2.48-1.432a1.768,1.768,0,0,1-.755-1.831h0a.861.861,0,0,1,1.323-.632l2.479,1.432a1.766,1.766,0,0,1,.755,1.831h0A.86.86,0,0,1,375.819,214.5Z" transform="translate(-362.625 -176.53)" fill="#d4ecff"/>
      <path id="Trazado_1937" data-name="Trazado 1937" d="M373.411,227.881l-3.079-1.778a1.769,1.769,0,0,1-.755-1.832h0a.86.86,0,0,1,1.323-.631l3.08,1.778a1.767,1.767,0,0,1,.754,1.831h0A.86.86,0,0,1,373.411,227.881Z" transform="translate(-361.999 -179.241)" fill="#d4ecff"/>
      <path id="Trazado_1938" data-name="Trazado 1938" d="M387.213,235.849l-8.118-4.688a1.769,1.769,0,0,1-.755-1.831h0a.861.861,0,0,1,1.323-.632l8.118,4.688a1.768,1.768,0,0,1,.755,1.831h0A.861.861,0,0,1,387.213,235.849Z" transform="translate(-363.822 -180.294)" fill="#d4ecff"/>
      <path id="Trazado_1939" data-name="Trazado 1939" d="M374.664,235.988l-5.837-3.37a1.769,1.769,0,0,1-.754-1.832h0a.86.86,0,0,1,1.323-.631l5.837,3.37a1.77,1.77,0,0,1,.755,1.831h0A.861.861,0,0,1,374.664,235.988Z" transform="translate(-361.686 -180.597)" fill="#d4ecff"/>
      <path id="Trazado_1940" data-name="Trazado 1940" d="M417.932,253.617l-3.748-2.164a1.768,1.768,0,0,1-.755-1.831h0a.861.861,0,0,1,1.323-.632l3.748,2.164a1.768,1.768,0,0,1,.755,1.831h0A.861.861,0,0,1,417.932,253.617Z" transform="translate(-371.122 -184.515)" fill="#d4ecff"/>
      <path id="Trazado_1941" data-name="Trazado 1941" d="M396.659,211.766l-10.318-5.957a1.767,1.767,0,0,1-.755-1.831h0a.861.861,0,0,1,1.323-.632l10.318,5.957a1.769,1.769,0,0,1,.755,1.831h0A.861.861,0,0,1,396.659,211.766Z" transform="translate(-365.33 -175.019)" fill="#d4ecff"/>
      <path id="Trazado_1942" data-name="Trazado 1942" d="M395.834,203.905l-17.982-10.383a1.768,1.768,0,0,1-.755-1.831h0a.861.861,0,0,1,1.323-.632L396.4,201.442a1.768,1.768,0,0,1,.755,1.831h0A.861.861,0,0,1,395.834,203.905Z" transform="translate(-363.564 -172.463)" fill="#d4ecff"/>
      <path id="Trazado_1943" data-name="Trazado 1943" d="M385.161,212.512l-10.318-5.957a1.768,1.768,0,0,1-.755-1.831h0a.861.861,0,0,1,1.323-.632l10.318,5.957a1.769,1.769,0,0,1,.755,1.831h0A.861.861,0,0,1,385.161,212.512Z" transform="translate(-362.938 -175.174)" fill="#d4ecff"/>
      <path id="Trazado_1944" data-name="Trazado 1944" d="M408.266,218.467l-3.748-2.164a1.768,1.768,0,0,1-.755-1.831h0a.861.861,0,0,1,1.323-.632L408.835,216a1.769,1.769,0,0,1,.755,1.832h0A.861.861,0,0,1,408.266,218.467Z" transform="translate(-369.111 -177.202)" fill="#d4ecff"/>
      <path id="Trazado_1945" data-name="Trazado 1945" d="M384.238,226.747l-12.4-7.161a1.769,1.769,0,0,1-.755-1.832h0a.86.86,0,0,1,1.323-.631l12.4,7.161a1.768,1.768,0,0,1,.755,1.831h0A.861.861,0,0,1,384.238,226.747Z" transform="translate(-362.312 -177.886)" fill="#d4ecff"/>
      <path id="Trazado_1946" data-name="Trazado 1946" d="M384.97,175.48l-9.119-5.264a1.769,1.769,0,0,1-.754-1.832h0a.86.86,0,0,1,1.323-.631l9.119,5.264a1.769,1.769,0,0,1,.755,1.831h0A.861.861,0,0,1,384.97,175.48Z" transform="translate(-363.148 -167.614)" fill="#d4ecff"/>
      <path id="Trazado_1947" data-name="Trazado 1947" d="M371.372,241.472l-10.56-6.1a1.768,1.768,0,0,1-.755-1.831h0a.861.861,0,0,1,1.323-.632l10.56,6.1a1.768,1.768,0,0,1,.755,1.831h0A.861.861,0,0,1,371.372,241.472Z" transform="translate(-360.018 -181.17)" fill="#d4ecff"/>
    </g>
    <path id="Trazado_1948" data-name="Trazado 1948" d="M430.808,178.243,439,143.966l-14.388-10.331a127.494,127.494,0,0,0-22.5-12.988l-15.238-6.774-8.191,34.277s-6.819,24.662,16.843,53.62C425.614,203.844,430.808,178.243,430.808,178.243Z" transform="translate(-10686.366 -12762.15)" fill="#8295b4"/>
    <g id="Grupo_2175" data-name="Grupo 2175" transform="translate(-10335.239 -12682.35)">
      <path id="Trazado_1949" data-name="Trazado 1949" d="M406.442,94.085a149.79,149.79,0,0,0-26.45-15.27L362.076,70.85l-5.741,2.236s2.52,1.347,4.616,2.471l-8.506,35.594s-8.017,29,19.8,63.043a49.442,49.442,0,0,0,14.091-.908c-.084.334-.141.563-.141.563l5.166-2.021q.721-.265,1.411-.553l.109-.042-.007,0c17.306-7.25,20.85-24.7,20.85-24.7l9.63-40.3Z" transform="translate(-345.634 -70.85)" fill="#2b80c3"/>
      <path id="Trazado_1950" data-name="Trazado 1950" d="M381.3,78.815,363.38,70.85l-5.741,2.236s2.52,1.347,4.616,2.471l-3.087,12.915,31.937,20.767,27.816-.771,5.74-2.236L407.745,94.085A149.786,149.786,0,0,0,381.3,78.815Z" transform="translate(-346.937 -70.85)" fill="#2b80c3"/>
      <path id="Trazado_1951" data-name="Trazado 1951" d="M389.741,88.343l5.776-2.206A143.574,143.574,0,0,0,381.3,78.815L363.38,70.85l-5.741,2.236s2.52,1.347,4.616,2.471l-.183.763C373.247,81.217,389.741,88.343,389.741,88.343Z" transform="translate(-346.937 -70.85)" fill="#aed7f7"/>
      <path id="Trazado_1952" data-name="Trazado 1952" d="M396.893,86.916l-10.755,4.029,9.008,5.2,10.675-4Q401.4,89.354,396.893,86.916Z" transform="translate(-352.866 -74.192)" fill="#5da1d7"/>
      <path id="Trazado_1953" data-name="Trazado 1953" d="M406.479,149.355l9.631-40.3L399.193,96.908a149.879,149.879,0,0,0-26.449-15.27l-17.916-7.965-9.63,40.3s-8.017,29,19.8,63.044C400.373,179.454,406.479,149.355,406.479,149.355Z" transform="translate(-344.126 -71.437)" fill="#6bb8f5"/>
      <path id="Trazado_1954" data-name="Trazado 1954" d="M368.424,174.29c-12.569-15.959-16.767-30.487-18.057-39.984-1.441-10.614.327-17.433.34-17.482l8.415-35.2L372.1,87.4a145.638,145.638,0,0,1,25.654,14.815L412.222,112.6l-8.93,37.367-.033.15a33.519,33.519,0,0,1-6.539,12.782C390.143,170.88,380.627,174.709,368.424,174.29Z" transform="translate(-345.307 -73.092)" fill="#008fff"/>
    </g>
    <g id="Grupo_2176" data-name="Grupo 2176" transform="translate(-10316.555 -12662.168)">
      <path id="Trazado_1955" data-name="Trazado 1955" d="M378.831,103.663a2.068,2.068,0,0,0,.845,2.348,1.25,1.25,0,0,0,1.867-.782,2.07,2.07,0,0,0-.846-2.349A1.249,1.249,0,0,0,378.831,103.663Z" transform="translate(-370.012 -97.657)" fill="red"/>
      <path id="Trazado_1956" data-name="Trazado 1956" d="M373.323,100.482a2.07,2.07,0,0,0,.845,2.349,1.25,1.25,0,0,0,1.867-.783,2.069,2.069,0,0,0-.845-2.348A1.249,1.249,0,0,0,373.323,100.482Z" transform="translate(-368.866 -96.995)" fill="red"/>
      <path id="Trazado_1957" data-name="Trazado 1957" d="M367.814,97.3a2.068,2.068,0,0,0,.846,2.348,1.25,1.25,0,0,0,1.867-.782,2.07,2.07,0,0,0-.846-2.349A1.25,1.25,0,0,0,367.814,97.3Z" transform="translate(-367.72 -96.333)" fill="red"/>
    </g>
    <g id="Grupo_2177" data-name="Grupo 2177" transform="translate(-10374 -12519.008)">
      <path id="Trazado_1958" data-name="Trazado 1958" d="M331.741,280.724c-8.363-4.829-21.922-4.829-30.284,0s-8.363,12.657,0,17.485,21.922,4.829,30.284,0S340.1,285.551,331.741,280.724Zm-15.662,8.907a8.607,8.607,0,0,1-7.788,0c-2.151-1.242-2.151-3.255,0-4.5a8.607,8.607,0,0,1,7.788,0C318.23,286.376,318.23,288.389,316.079,289.631Z" transform="translate(-295.184 -277.102)" fill="#b2d3ea"/>
      <path id="Trazado_1959" data-name="Trazado 1959" d="M344.545,298.855a20.117,20.117,0,0,1-4.144,3.111,29.648,29.648,0,0,1-5.388,2.392l4.094,2.363,6.169.318,3.051,1.762-1.245.719,2.31,1.334,2.491-1.438,4.037,2.331-4.056,2.341,2.981,1.721,2.891,1.669,3.6-2.08,5.339,3.082-2.039,1.177,3.43,1.981,2.038-1.177,1.609.929-1.621,3.224,5.188,3h19.066Z" transform="translate(-303.47 -281.628)" fill="#b2d3ea"/>
    </g>
    <path id="Trazado_1960" data-name="Trazado 1960" d="M338.012,287.322v-5.79l-1.706.963a14.714,14.714,0,0,0-4.566-3.906c-8.363-4.829-21.922-4.829-30.284,0a13.961,13.961,0,0,0-5.026,4.581l-1.246-1.639v5.79c0,3.167,2.086,6.335,6.272,8.752,8.363,4.828,21.922,4.828,30.284,0C335.926,293.657,338.017,290.489,338.012,287.322Zm-22.006-3.774a8.607,8.607,0,0,1-7.788,0c-2.151-1.242-2.151-3.255,0-4.5a8.609,8.609,0,0,1,7.788,0C318.157,280.293,318.157,282.306,316.006,283.548Z" transform="translate(-10669.184 -12795.666)" fill="#e8a200"/>
    <path id="Trazado_1961" data-name="Trazado 1961" d="M314.806,293.61l-9.241-4.555-8.212-5.425a10.563,10.563,0,0,0-.923,1.264l-1.246-1.639v5.79c0,3.167,2.086,6.335,6.272,8.752a30.033,30.033,0,0,0,13.349,3.575Z" transform="translate(-10669.184 -12797.391)" fill="#fdd762"/>
    <path id="Trazado_1962" data-name="Trazado 1962" d="M331.741,271.267c-8.363-4.829-21.922-4.829-30.284,0s-8.363,12.656,0,17.485,21.922,4.829,30.284,0S340.1,276.094,331.741,271.267Zm-15.662,8.907a8.607,8.607,0,0,1-7.788,0c-2.151-1.242-2.151-3.255,0-4.5a8.607,8.607,0,0,1,7.788,0C318.23,276.919,318.23,278.932,316.079,280.174Z" transform="translate(-10669.184 -12794.143)" fill="#fdd762"/>
    <path id="Trazado_1963" data-name="Trazado 1963" d="M323.007,276.078H311.385a29.555,29.555,0,0,0-3.093.887v9.849h14.715Zm-4.274,7.7a8.606,8.606,0,0,1-7.788,0c-2.151-1.242-2.151-3.255,0-4.5a8.609,8.609,0,0,1,7.788,0C320.884,280.524,320.884,282.537,318.733,283.779Z" transform="translate(-10671.91 -12795.898)" fill="#e8a200"/>
    <path id="Trazado_1964" data-name="Trazado 1964" d="M330.612,272.688c-7.372-4.256-19.323-4.256-26.694,0s-7.371,11.156,0,15.411,19.323,4.256,26.694,0S337.983,276.944,330.612,272.688Zm-13.866,7.87a8.606,8.606,0,0,1-7.788,0c-2.151-1.242-2.151-3.255,0-4.5a8.606,8.606,0,0,1,7.788,0C318.9,277.3,318.9,279.317,316.746,280.559Z" transform="translate(-10669.851 -12794.527)" fill="#ffb800"/>
    <path id="Trazado_1965" data-name="Trazado 1965" d="M303.92,274.287c7.371-4.256,19.322-4.256,26.694,0,3.333,1.924,5.153,4.39,5.472,6.907.386-3.049-1.435-6.174-5.472-8.5-7.372-4.256-19.323-4.256-26.694,0-4.038,2.332-5.859,5.456-5.472,8.5C298.766,278.676,300.587,276.21,303.92,274.287Z" transform="translate(-10669.852 -12794.527)" fill="#e8a200"/>
    <g id="Grupo_2178" data-name="Grupo 2178" transform="translate(-10342.457 -12507.699)">
      <path id="Trazado_1966" data-name="Trazado 1966" d="M344.545,296.666a20.115,20.115,0,0,1-4.144,3.111,29.6,29.6,0,0,1-5.388,2.392l4.094,2.363,6.169.318,3.051,1.762-1.245.719,2.31,1.334,2.491-1.438,4.037,2.331-4.056,2.342,2.981,1.72,2.891,1.669,3.6-2.08,5.339,3.082-2.039,1.177,3.43,1.98,2.038-1.177,1.609.929-1.621,3.224,5.188,3h19.066Z" transform="translate(-335.013 -292.481)" fill="#f2b42a"/>
      <path id="Trazado_1967" data-name="Trazado 1967" d="M344.545,291.382a20.058,20.058,0,0,1-4.144,3.111,29.6,29.6,0,0,1-5.388,2.393l4.094,2.363,6.169.318,3.051,1.762-1.245.718,2.31,1.334,2.491-1.438,4.037,2.33-4.056,2.342,2.981,1.721,2.891,1.669,3.6-2.08,5.339,3.082-2.039,1.177,3.43,1.981,2.038-1.177,1.609.929-1.621,3.224,5.188,3h19.066Z" transform="translate(-335.013 -291.382)" fill="#fdd762"/>
      <rect id="Rectángulo_437" data-name="Rectángulo 437" width="19.065" height="4.184" transform="translate(40.271 28.755)" fill="#e8a200"/>
      <path id="Trazado_1968" data-name="Trazado 1968" d="M376.753,324.025V319.84l2.038-1.177v4.184Z" transform="translate(-343.696 -297.058)" fill="#e8a200"/>
      <path id="Trazado_1969" data-name="Trazado 1969" d="M372.422,317.649v4.184l3.43,1.98v-4.184Z" transform="translate(-342.795 -296.847)" fill="#eead00"/>
      <path id="Trazado_1970" data-name="Trazado 1970" d="M367.308,312.271v4.184l-3.6,2.08v-4.184Z" transform="translate(-340.982 -295.728)" fill="#e8a200"/>
      <path id="Trazado_1971" data-name="Trazado 1971" d="M356.291,310.617V314.8l5.872,3.39v-4.184Z" transform="translate(-339.439 -295.384)" fill="#eead00"/>
      <path id="Trazado_1972" data-name="Trazado 1972" d="M379.324,323.947l-.012,4.153,5.188,3v-4.184Z" transform="translate(-344.229 -298.157)" fill="#eead00"/>
      <path id="Trazado_1973" data-name="Trazado 1973" d="M352.563,306.183v4.184l-2.31-1.334V304.85Z" transform="translate(-338.183 -294.184)" fill="#eead00"/>
      <path id="Trazado_1974" data-name="Trazado 1974" d="M340.182,301.316V305.5l6.169.317v-4.184Z" transform="translate(-336.088 -293.449)" fill="#e8a200"/>
      <path id="Trazado_1975" data-name="Trazado 1975" d="M383.929,318.1l-36.463-21.071,2.026-1.17,38.467,22.228Z" transform="translate(-337.604 -292.314)" fill="#e8a200"/>
      <path id="Trazado_1976" data-name="Trazado 1976" d="M349.493,296.877l36.723,21.22,1.744-.006-38.467-22.228-2.026,1.17.877.507Z" transform="translate(-337.604 -292.314)" fill="#f2b42a"/>
      <path id="Trazado_1977" data-name="Trazado 1977" d="M339.106,304.879V300.7l-4.094-2.364v4.184Z" transform="translate(-335.013 -292.828)" fill="#e8a200"/>
      <path id="Trazado_1978" data-name="Trazado 1978" d="M355.661,304.718V308.9l-2.491,1.438v-4.184Z" transform="translate(-338.79 -294.156)" fill="#e8a200"/>
    </g>
    <path id="Trazado_1979" data-name="Trazado 1979" d="M335.1,272.688c-4.143-2.392-9.731-3.439-15.14-3.143v1.6c5.409-.3,11,.751,15.14,3.142,3.333,1.924,5.153,4.39,5.472,6.907C340.958,278.144,339.137,275.02,335.1,272.688Z" transform="translate(-10674.338 -12794.527)" fill="#fdd762"/>
  </g>
</svg>
