<svg xmlns="http://www.w3.org/2000/svg" xmlns:xlink="http://www.w3.org/1999/xlink" width="271" height="222.246" viewBox="0 0 271 222.246">
  <defs>
    <radialGradient id="radial-gradient" cx="0.5" cy="0.5" r="0.5" gradientUnits="objectBoundingBox">
      <stop offset="0" stop-color="#e3e3e3"/>
      <stop offset="1" stop-color="#fff"/>
    </radialGradient>
    <linearGradient id="linear-gradient" y1="0.602" x2="1.034" y2="0.556" gradientUnits="objectBoundingBox">
      <stop offset="0" stop-color="#85000a"/>
      <stop offset="0.094" stop-color="#880009"/>
      <stop offset="0.235" stop-color="#b20006"/>
      <stop offset="0.449" stop-color="#d30003"/>
      <stop offset="0.652" stop-color="#eb0001"/>
      <stop offset="0.841" stop-color="#fa0000"/>
      <stop offset="1" stop-color="red"/>
    </linearGradient>
  </defs>
  <g id="learning" transform="translate(-956 -140.754)">
    <ellipse id="Elipse_514" data-name="Elipse 514" cx="135.5" cy="76" rx="135.5" ry="76" transform="translate(956 211)" fill="url(#radial-gradient)"/>
    <g id="Grupo_1932" data-name="Grupo 1932" transform="translate(24225.197 23727.754)">
      <path id="Trazado_1604" data-name="Trazado 1604" d="M345.541,309.305l-75.625-43.662a2.549,2.549,0,0,1,0-4.415l71.907-41.51,80.453,46.449a2.549,2.549,0,0,1,0,4.415L355.2,309.306A9.658,9.658,0,0,1,345.541,309.305Z" transform="translate(-23472.789 -23700.998)" fill="#173d7a" opacity="0.5"/>
      <path id="Trazado_1605" data-name="Trazado 1605" d="M339.368,176.173c0-4.8-3.378-6.758-7.539-4.361L261.1,212.563a4.576,4.576,0,0,0-2.074,3.584c0,1.32.926,1.856,2.07,1.2l70.729-40.751c1.877-1.081,3.4-.2,3.4,1.966l-.008,7.91c1.373-.085,2.75-.087,4.141-.063Z" transform="translate(-23468.799 -23680.688)" fill="#0bf"/>
      <path id="Trazado_1606" data-name="Trazado 1606" d="M261.052,242.643l70.729-25.773a16.7,16.7,0,0,0,7.554-13.057l.005-6.33c-1.391-.024-2.768-.023-4.141.063l-.008,8.654a7.528,7.528,0,0,1-3.407,5.889l-70.729,25.774a4.577,4.577,0,0,0-2.073,3.584C258.982,242.767,259.908,243.3,261.052,242.643Z" transform="translate(-23468.779 -23691.764)" fill="#008fff"/>
      <path id="Trazado_1607" data-name="Trazado 1607" d="M259.9,269.738l86.039,49.786,72.845-43.443,5.779-8.625-.6,3.056-1.553-8-135.219,5.157-23.824-1.535Z" transform="translate(-23469.16 -23718.762)" fill="#006cc1"/>
      <path id="Trazado_1608" data-name="Trazado 1608" d="M264.76,249.18l-.023,10.591,83.156,48.109,2.247-10.094Z" transform="translate(-23471.168 -23713.229)" fill="#8fc9f7"/>
      <path id="Trazado_1609" data-name="Trazado 1609" d="M423.546,221.416l-85.9-49.7-77.449,45.039-.16,1.106,86.028,49.771Z" transform="translate(-23469.217 -23681.074)" fill="#008fff"/>
      <path id="Trazado_1610" data-name="Trazado 1610" d="M457.109,285.028l20.2-11.981a7.587,7.587,0,0,0,3.037-5.633l.015-1.587A2.192,2.192,0,0,0,479,263.476l-39.759,22.119L406.86,303.106l.03,10.709Z" transform="translate(-23530.166 -23719.164)" fill="#fff"/>
      <path id="Trazado_1611" data-name="Trazado 1611" d="M348.4,296.434l-85.357-49.383L261.23,246l-1.653-.956a4.168,4.168,0,0,0-.55,1.925,1.465,1.465,0,0,0,.588,1.327v0l.013.008.006,0,86.009,49.76Z" transform="translate(-23468.799 -23711.514)" fill="#006cc1"/>
      <path id="Trazado_1612" data-name="Trazado 1612" d="M405.167,358.75l1.073.621.2-.342-.668-.526Z" transform="translate(-23529.463 -23758.609)" fill="#fff"/>
      <path id="Trazado_1613" data-name="Trazado 1613" d="M405.215,334.6l1.1.636-.275-.6Z" transform="translate(-23529.482 -23748.689)" fill="#fff"/>
      <path id="Trazado_1614" data-name="Trazado 1614" d="M408.167,297.657l70.729-40.75c4.161-2.4,7.543-.441,7.539,4.361l-.015,1.587a16.7,16.7,0,0,1-7.554,13.056l-70.729,40.751c-1.144.659-2.071.123-2.069-1.2a4.579,4.579,0,0,1,2.073-3.585L478.87,271.13a7.527,7.527,0,0,0,3.406-5.888l.015-1.587c0-2.166-1.523-3.048-3.4-1.967l-70.729,40.751c-1.144.659-2.07.123-2.069-1.2A4.578,4.578,0,0,1,408.167,297.657Z" transform="translate(-23529.836 -23716.012)" fill="#008fff"/>
      <path id="Trazado_1615" data-name="Trazado 1615" d="M405.262,319.273a4.579,4.579,0,0,1,2.073-3.585l70.729-40.75a7.529,7.529,0,0,0,3.406-5.889l.015-1.587c0-1.418-.654-2.281-1.632-2.407a2.847,2.847,0,0,1,.5,1.752l-.015,1.587a7.53,7.53,0,0,1-3.407,5.889L406.2,315.032a4.578,4.578,0,0,0-2.074,3.585c0,1,.532,1.548,1.288,1.468A1.988,1.988,0,0,1,405.262,319.273Z" transform="translate(-23529.031 -23719.818)" fill="#fff"/>
      <path id="Trazado_1616" data-name="Trazado 1616" d="M405.307,300.778a4.576,4.576,0,0,1,2.073-3.584l70.729-40.751a5.706,5.706,0,0,1,4.732-.791c-1.383-1.179-3.5-1.229-5.865.136l-70.729,40.751a4.576,4.576,0,0,0-2.074,3.584c0,1,.532,1.548,1.288,1.468A1.979,1.979,0,0,1,405.307,300.778Z" transform="translate(-23529.051 -23715.547)" fill="#fff"/>
      <path id="Trazado_1617" data-name="Trazado 1617" d="M479.253,100.254,402.942,56.2a3.081,3.081,0,0,0-2.586-.317l0-.008-.139.052-.034.013-2.758,1.055,2.475,1.212c-.011.046-.025.088-.036.135l-12.429,56.58c-.622,2.831.624,6.137,2.782,7.384l74.476,43-.266,3.156,3.014-1.168a4.236,4.236,0,0,0,2.159-3.07l12.429-56.58C482.658,104.806,481.412,101.5,479.253,100.254Z" transform="translate(-23522.037 -23632.922)" fill="#006cc1"/>
      <path id="Trazado_1618" data-name="Trazado 1618" d="M482.374,100.254,406.063,56.2a3.081,3.081,0,0,0-2.586-.317l0-.008-.139.052-.034.013-2.758,1.055,2.475,1.212c-.011.046-.025.088-.036.135L394.8,95.627l37.338,29.09L484.785,103.3A5.922,5.922,0,0,0,482.374,100.254Z" transform="translate(-23525.158 -23632.922)" fill="#006cc1"/>
      <path id="Trazado_1619" data-name="Trazado 1619" d="M535.536,140.845l5.809-2.473a7.279,7.279,0,0,0-2.354-5.817l-9.2,3.868Z" transform="translate(-23581.197 -23664.816)" fill="#054e87"/>
      <path id="Trazado_1620" data-name="Trazado 1620" d="M458.409,168.911,382.1,124.853c-2.159-1.246-3.4-4.552-2.782-7.384l12.429-56.58c.622-2.831,2.876-4.116,5.035-2.87l76.311,44.058c2.159,1.246,3.4,4.552,2.783,7.384l-12.43,56.58C462.822,168.873,460.568,170.158,458.409,168.911Z" transform="translate(-23518.664 -23633.678)" fill="#d4ecff"/>
      <path id="Trazado_1621" data-name="Trazado 1621" d="M484.721,101.623,408.41,57.565a3.017,3.017,0,0,0-3-.131,3.136,3.136,0,0,1,2.272.4l76.311,44.058c2.159,1.247,3.4,4.553,2.783,7.384l-12.43,56.58a4.3,4.3,0,0,1-2.031,3,3.934,3.934,0,0,0,2.764-3.269l12.429-56.58C488.126,106.176,486.88,102.869,484.721,101.623Z" transform="translate(-23529.561 -23633.492)" fill="#fff"/>
      <path id="Trazado_1622" data-name="Trazado 1622" d="M458.982,167.648l-71.77-41.416c-1.975-1.141-3.115-4.166-2.546-6.757L396.04,67.7c.569-2.591,2.632-3.767,4.608-2.626l71.769,41.416c1.976,1.141,3.116,4.166,2.547,6.757L463.59,165.022C463.02,167.613,460.957,168.789,458.982,167.648Z" transform="translate(-23520.893 -23636.623)" fill="#fff"/>
      <path id="Trazado_1623" data-name="Trazado 1623" d="M458.982,167.648l-71.77-41.416c-1.975-1.141-3.115-4.166-2.546-6.757L396.04,67.7c.569-2.591,2.632-3.767,4.608-2.626l71.769,41.416c1.976,1.141,3.116,4.166,2.547,6.757L463.59,165.022C463.02,167.613,460.957,168.789,458.982,167.648Z" transform="translate(-23520.893 -23636.623)" fill="#173d7a"/>
      <path id="Trazado_1624" data-name="Trazado 1624" d="M459.607,167.452l-71.769-41.417c-1.976-1.14-3.116-4.166-2.547-6.756L396.666,67.5a3.972,3.972,0,0,1,1.808-2.726,3.654,3.654,0,0,0-2.434,2.98l-11.374,51.775c-.569,2.592.571,5.617,2.546,6.757l71.77,41.416a2.758,2.758,0,0,0,2.8.1A2.862,2.862,0,0,1,459.607,167.452Z" transform="translate(-23520.893 -23636.682)" fill="#5793ce"/>
      <path id="Trazado_1625" data-name="Trazado 1625" d="M416.947,222.067l-10.431-1.377L339.18,181.814c-2.158-1.246-5.929-1.09-8.422.349L283.044,209.7l-6.308-.833v3.578h.006a2.458,2.458,0,0,0,1.448,2.211L354.5,258.717c2.159,1.246,5.93,1.09,8.422-.349l51.963-29.991c1.4-.809,2.1-1.852,2.06-2.832h0Z" transform="translate(-23476.15 -23684.914)" fill="#173d7a"/>
      <path id="Trazado_1626" data-name="Trazado 1626" d="M366.354,207.274l-4.784-2.762h-52.6l-25.929,14.96-6.308-.833v3.578h.006a2.458,2.458,0,0,0,1.448,2.211L354.5,268.488a7.9,7.9,0,0,0,4.347.815Z" transform="translate(-23476.15 -23694.688)" fill="#396caa"/>
      <path id="Trazado_1627" data-name="Trazado 1627" d="M279.535,229.036l-2.8-.37v3.578h.006a2.458,2.458,0,0,0,1.448,2.211l1.345.776Z" transform="translate(-23476.15 -23704.713)" fill="#5793ce"/>
      <path id="Trazado_1628" data-name="Trazado 1628" d="M411.009,308.523a9.775,9.775,0,0,0,7.156-.444V300.1h-7.156Z" transform="translate(-23531.889 -23734.365)" fill="#274f89"/>
      <path id="Trazado_1629" data-name="Trazado 1629" d="M354.5,250.931l-76.311-44.058c-2.159-1.246-1.888-3.423.6-4.863l51.963-29.991c2.493-1.439,6.264-1.595,8.422-.349l76.312,44.058c2.159,1.246,1.888,3.423-.6,4.862l-51.963,29.991C360.43,252.021,356.659,252.178,354.5,250.931Z" transform="translate(-23476.146 -23680.705)" fill="#d4ecff"/>
      <path id="Trazado_1630" data-name="Trazado 1630" d="M414.888,242.9l-51.963,29.991c-2.493,1.439-6.264,1.6-8.422.35l-76.311-44.059a2.836,2.836,0,0,1-1.342-1.468,2.308,2.308,0,0,0,1.342,2.775L354.5,274.543c2.159,1.246,5.93,1.09,8.422-.349L414.888,244.2c1.675-.967,2.342-2.267,1.947-3.395A4.056,4.056,0,0,1,414.888,242.9Z" transform="translate(-23476.15 -23704.316)" fill="#fff"/>
      <g id="Grupo_1937" data-name="Grupo 1937" transform="translate(-23169.143 -23507.162)">
        <path id="Trazado_1631" data-name="Trazado 1631" d="M332.131,203.879l-3.453-1.993c-.277-.16-.242-.44.078-.625l4.076-2.353a1.2,1.2,0,0,1,1.081-.045l3.453,1.994c.277.16.242.439-.078.624l-4.076,2.353A1.2,1.2,0,0,1,332.131,203.879Z" transform="translate(-328.491 -185.135)" fill="#1872b8"/>
        <path id="Trazado_1632" data-name="Trazado 1632" d="M341.248,209.143l-3.453-1.993c-.277-.16-.243-.44.078-.625l4.075-2.353a1.2,1.2,0,0,1,1.081-.044l3.453,1.993c.277.16.243.44-.078.625l-4.076,2.353A1.2,1.2,0,0,1,341.248,209.143Z" transform="translate(-332.276 -187.32)" fill="#1872b8"/>
        <path id="Trazado_1633" data-name="Trazado 1633" d="M350.364,214.406l-3.453-1.994c-.277-.16-.242-.439.078-.624l4.076-2.353a1.2,1.2,0,0,1,1.081-.045l3.453,1.994c.277.16.242.439-.078.624l-4.076,2.353A1.2,1.2,0,0,1,350.364,214.406Z" transform="translate(-336.06 -189.505)" fill="#1872b8"/>
        <path id="Trazado_1634" data-name="Trazado 1634" d="M362.973,210.328l-3.453-1.993c-.277-.16-.242-.44.078-.625l3.421-1.975a1.2,1.2,0,0,1,1.081-.045l3.453,1.994c.277.16.242.439-.078.624l-3.421,1.975A1.2,1.2,0,0,1,362.973,210.328Z" transform="translate(-341.294 -187.968)" fill="#1872b8"/>
        <path id="Trazado_1635" data-name="Trazado 1635" d="M372.09,215.591l-3.453-1.993c-.277-.16-.243-.439.077-.624L372.136,211a1.2,1.2,0,0,1,1.081-.044l3.453,1.993c.277.16.243.44-.078.625l-3.421,1.975A1.2,1.2,0,0,1,372.09,215.591Z" transform="translate(-345.078 -190.153)" fill="#1872b8"/>
        <path id="Trazado_1636" data-name="Trazado 1636" d="M381.206,220.855l-3.453-1.993c-.277-.16-.242-.44.078-.625l3.421-1.975a1.2,1.2,0,0,1,1.081-.045l3.453,1.994c.277.16.242.439-.078.624l-3.421,1.975A1.2,1.2,0,0,1,381.206,220.855Z" transform="translate(-348.863 -192.338)" fill="#1872b8"/>
        <path id="Trazado_1637" data-name="Trazado 1637" d="M390.323,226.118l-3.453-1.993c-.277-.16-.243-.44.077-.625l3.422-1.975a1.2,1.2,0,0,1,1.081-.044l3.453,1.993c.277.16.243.44-.078.625l-3.421,1.975A1.2,1.2,0,0,1,390.323,226.118Z" transform="translate(-352.647 -194.523)" fill="#1872b8"/>
        <path id="Trazado_1638" data-name="Trazado 1638" d="M399.439,231.381l-3.453-1.994c-.277-.16-.242-.439.078-.624l3.421-1.975a1.2,1.2,0,0,1,1.081-.045l3.453,1.993c.277.16.242.44-.078.625l-3.421,1.975A1.2,1.2,0,0,1,399.439,231.381Z" transform="translate(-356.432 -196.708)" fill="#1872b8"/>
        <path id="Trazado_1639" data-name="Trazado 1639" d="M408.556,236.645l-3.453-1.993c-.277-.16-.243-.44.077-.625l3.422-1.975a1.2,1.2,0,0,1,1.081-.044L413.136,234c.277.16.243.44-.077.624l-3.422,1.975A1.2,1.2,0,0,1,408.556,236.645Z" transform="translate(-360.216 -198.893)" fill="#1872b8"/>
        <path id="Trazado_1640" data-name="Trazado 1640" d="M417.672,241.908l-3.453-1.994c-.277-.16-.242-.439.078-.624l3.421-1.975a1.2,1.2,0,0,1,1.081-.045l3.453,1.993c.277.16.242.44-.078.625l-3.421,1.975A1.2,1.2,0,0,1,417.672,241.908Z" transform="translate(-364 -201.078)" fill="#1872b8"/>
        <path id="Trazado_1641" data-name="Trazado 1641" d="M426.789,247.172l-3.453-1.993c-.277-.16-.243-.44.078-.625l3.421-1.975a1.2,1.2,0,0,1,1.081-.045l3.453,1.994c.277.16.243.439-.077.624l-3.422,1.975A1.2,1.2,0,0,1,426.789,247.172Z" transform="translate(-367.785 -203.263)" fill="#1872b8"/>
        <path id="Trazado_1642" data-name="Trazado 1642" d="M435.905,252.435l-3.453-1.994c-.277-.16-.242-.439.078-.625l3.421-1.975a1.2,1.2,0,0,1,1.082-.044l3.453,1.993c.277.16.242.44-.078.625l-3.421,1.975A1.2,1.2,0,0,1,435.905,252.435Z" transform="translate(-371.569 -205.448)" fill="#1872b8"/>
        <path id="Trazado_1643" data-name="Trazado 1643" d="M445.022,257.7l-3.453-1.993c-.277-.16-.243-.44.078-.625l3.421-1.975a1.2,1.2,0,0,1,1.081-.045l3.453,1.994c.277.16.243.439-.077.624l-3.422,1.975A1.2,1.2,0,0,1,445.022,257.7Z" transform="translate(-375.353 -207.633)" fill="#1872b8"/>
        <path id="Trazado_1644" data-name="Trazado 1644" d="M376.406,207.836l-3.453-1.993c-.277-.16-.243-.44.077-.625l3.422-1.975a1.2,1.2,0,0,1,1.081-.045l3.453,1.994c.277.16.243.439-.078.624l-3.421,1.975A1.2,1.2,0,0,1,376.406,207.836Z" transform="translate(-346.87 -186.934)" fill="#1872b8"/>
        <path id="Trazado_1645" data-name="Trazado 1645" d="M367.153,202.494,363.7,200.5c-.277-.16-.242-.44.078-.625L367.2,197.9a1.2,1.2,0,0,1,1.081-.045l3.453,1.994c.277.16.242.439-.078.624l-3.421,1.975A1.2,1.2,0,0,1,367.153,202.494Z" transform="translate(-343.029 -184.716)" fill="#1872b8"/>
        <path id="Trazado_1646" data-name="Trazado 1646" d="M355.058,195.51l-7.437-4.293c-.277-.16-.242-.44.078-.625l3.421-1.975a1.2,1.2,0,0,1,1.082-.045l7.436,4.294c.277.16.242.44-.078.625l-3.421,1.975A1.2,1.2,0,0,1,355.058,195.51Z" transform="translate(-336.355 -180.863)" fill="#1872b8"/>
        <path id="Trazado_1647" data-name="Trazado 1647" d="M362.531,189.578l-6.035-3.484c-.277-.16-.243-.439.078-.625l3.421-1.975a1.2,1.2,0,0,1,1.081-.044l6.035,3.484c.277.16.243.439-.078.625l-3.421,1.975A1.2,1.2,0,0,1,362.531,189.578Z" transform="translate(-340.039 -178.736)" fill="#1872b8"/>
        <path id="Trazado_1648" data-name="Trazado 1648" d="M385.522,213.1l-3.453-1.993c-.277-.16-.242-.439.078-.624l3.421-1.976a1.2,1.2,0,0,1,1.081-.044l3.453,1.993c.277.16.242.44-.078.625l-3.421,1.975A1.2,1.2,0,0,1,385.522,213.1Z" transform="translate(-350.654 -189.119)" fill="#1872b8"/>
        <path id="Trazado_1649" data-name="Trazado 1649" d="M394.639,218.363l-3.453-1.993c-.277-.16-.243-.44.078-.625l3.421-1.975a1.2,1.2,0,0,1,1.081-.045l3.453,1.994c.277.16.243.439-.077.624l-3.422,1.975A1.2,1.2,0,0,1,394.639,218.363Z" transform="translate(-354.439 -191.304)" fill="#1872b8"/>
        <path id="Trazado_1650" data-name="Trazado 1650" d="M403.755,223.626l-3.453-1.993c-.277-.16-.242-.44.078-.625l3.421-1.975a1.2,1.2,0,0,1,1.082-.044l3.453,1.993c.277.16.242.44-.078.625l-3.421,1.975A1.2,1.2,0,0,1,403.755,223.626Z" transform="translate(-358.223 -193.489)" fill="#1872b8"/>
        <path id="Trazado_1651" data-name="Trazado 1651" d="M412.872,228.89l-3.453-1.993c-.277-.16-.243-.44.078-.625l3.421-1.975a1.2,1.2,0,0,1,1.081-.045l3.453,1.993c.277.16.243.44-.077.625l-3.422,1.975A1.2,1.2,0,0,1,412.872,228.89Z" transform="translate(-362.008 -195.674)" fill="#1872b8"/>
        <path id="Trazado_1652" data-name="Trazado 1652" d="M421.988,234.153l-3.453-1.993c-.277-.16-.242-.44.078-.625l3.421-1.975a1.2,1.2,0,0,1,1.082-.044l3.453,1.993c.277.16.242.44-.078.625l-3.421,1.975A1.2,1.2,0,0,1,421.988,234.153Z" transform="translate(-365.792 -197.859)" fill="#1872b8"/>
        <path id="Trazado_1653" data-name="Trazado 1653" d="M431.1,239.416l-3.453-1.994c-.277-.16-.243-.439.078-.624l3.421-1.975a1.2,1.2,0,0,1,1.081-.045l3.453,1.993c.277.16.243.44-.077.625l-3.422,1.975A1.2,1.2,0,0,1,431.1,239.416Z" transform="translate(-369.576 -200.043)" fill="#1872b8"/>
        <path id="Trazado_1654" data-name="Trazado 1654" d="M440.221,244.68l-3.453-1.993c-.277-.16-.242-.44.078-.625l3.421-1.975a1.2,1.2,0,0,1,1.082-.044l3.453,1.993c.277.16.243.439-.078.624l-3.421,1.975A1.2,1.2,0,0,1,440.221,244.68Z" transform="translate(-373.361 -202.228)" fill="#1872b8"/>
        <path id="Trazado_1655" data-name="Trazado 1655" d="M449.338,249.943l-3.453-1.994c-.277-.16-.243-.439.078-.624l3.421-1.975a1.2,1.2,0,0,1,1.081-.045l3.453,1.993c.277.16.242.44-.078.625L450.42,249.9A1.2,1.2,0,0,1,449.338,249.943Z" transform="translate(-377.145 -204.413)" fill="#1872b8"/>
        <path id="Trazado_1656" data-name="Trazado 1656" d="M458.455,255.207,455,253.213c-.277-.16-.243-.44.077-.625l3.422-1.975a1.2,1.2,0,0,1,1.081-.045l3.453,1.994c.277.16.243.439-.078.624l-3.421,1.975A1.2,1.2,0,0,1,458.455,255.207Z" transform="translate(-380.93 -206.598)" fill="#1872b8"/>
        <path id="Trazado_1657" data-name="Trazado 1657" d="M471.765,262.892l-7.534-4.349c-.277-.16-.242-.44.078-.625l3.421-1.975a1.2,1.2,0,0,1,1.082-.045l7.533,4.35c.277.16.243.439-.078.625l-3.421,1.975A1.2,1.2,0,0,1,471.765,262.892Z" transform="translate(-384.761 -208.81)" fill="#1872b8"/>
        <path id="Trazado_1658" data-name="Trazado 1658" d="M490.348,253.126l-6.359-3.671c-.277-.16-.242-.439.078-.624l3.421-1.976a1.2,1.2,0,0,1,1.081-.044l6.359,3.671c.277.16.243.439-.078.624l-3.421,1.975A1.2,1.2,0,0,1,490.348,253.126Z" transform="translate(-392.963 -205.038)" fill="#1872b8"/>
        <path id="Trazado_1659" data-name="Trazado 1659" d="M401.487,212.069l-3.453-1.994c-.277-.16-.242-.439.078-.624l3.421-1.975a1.2,1.2,0,0,1,1.081-.045l3.453,1.993c.277.16.242.44-.078.625l-3.421,1.975A1.2,1.2,0,0,1,401.487,212.069Z" transform="translate(-357.282 -188.691)" fill="#1872b8"/>
        <path id="Trazado_1660" data-name="Trazado 1660" d="M392.144,206.675l-3.453-1.993c-.277-.16-.243-.44.078-.625l3.421-1.975a1.2,1.2,0,0,1,1.081-.044l3.453,1.993c.277.16.243.44-.077.625l-3.422,1.975A1.2,1.2,0,0,1,392.144,206.675Z" transform="translate(-353.403 -186.452)" fill="#1872b8"/>
        <path id="Trazado_1661" data-name="Trazado 1661" d="M382.8,201.281l-3.453-1.993c-.277-.16-.243-.44.077-.625l3.422-1.975a1.2,1.2,0,0,1,1.081-.045l3.453,1.994c.277.16.243.439-.078.624l-3.421,1.975A1.2,1.2,0,0,1,382.8,201.281Z" transform="translate(-349.525 -184.213)" fill="#1872b8"/>
        <path id="Trazado_1662" data-name="Trazado 1662" d="M373.457,195.886,370,193.893c-.277-.16-.242-.439.078-.624l3.421-1.975a1.2,1.2,0,0,1,1.082-.045l3.453,1.993c.277.16.242.44-.078.625l-3.421,1.975A1.2,1.2,0,0,1,373.457,195.886Z" transform="translate(-345.646 -181.974)" fill="#1872b8"/>
        <path id="Trazado_1663" data-name="Trazado 1663" d="M410.6,217.333l-3.453-1.993c-.277-.16-.243-.44.078-.625l3.421-1.975a1.2,1.2,0,0,1,1.081-.045l3.453,1.994c.277.16.243.439-.077.624l-3.422,1.975A1.2,1.2,0,0,1,410.6,217.333Z" transform="translate(-361.066 -190.876)" fill="#1872b8"/>
        <path id="Trazado_1664" data-name="Trazado 1664" d="M419.72,222.6l-3.453-1.994c-.277-.16-.242-.439.078-.624L419.766,218a1.2,1.2,0,0,1,1.082-.044l3.453,1.993c.277.16.242.44-.078.625l-3.421,1.975A1.2,1.2,0,0,1,419.72,222.6Z" transform="translate(-364.85 -193.061)" fill="#1872b8"/>
        <path id="Trazado_1665" data-name="Trazado 1665" d="M428.837,227.86l-3.453-1.993c-.277-.16-.243-.44.078-.625l3.421-1.975a1.2,1.2,0,0,1,1.081-.045l3.453,1.994c.277.16.243.439-.077.624l-3.422,1.975A1.2,1.2,0,0,1,428.837,227.86Z" transform="translate(-368.635 -195.246)" fill="#1872b8"/>
        <path id="Trazado_1666" data-name="Trazado 1666" d="M437.953,233.123l-3.453-1.993c-.277-.16-.242-.439.078-.625L438,228.53a1.2,1.2,0,0,1,1.082-.044l3.453,1.993c.277.16.242.44-.078.625l-3.421,1.975A1.2,1.2,0,0,1,437.953,233.123Z" transform="translate(-372.419 -197.431)" fill="#1872b8"/>
        <path id="Trazado_1667" data-name="Trazado 1667" d="M447.07,238.386l-3.453-1.993c-.277-.16-.243-.44.078-.625l3.421-1.975a1.2,1.2,0,0,1,1.081-.045l3.453,1.994c.277.16.243.439-.077.624l-3.422,1.975A1.2,1.2,0,0,1,447.07,238.386Z" transform="translate(-376.204 -199.616)" fill="#1872b8"/>
        <path id="Trazado_1668" data-name="Trazado 1668" d="M456.186,243.65l-3.453-1.993c-.277-.16-.242-.44.078-.625l3.421-1.975a1.2,1.2,0,0,1,1.082-.044l3.453,1.993c.277.16.243.44-.078.625l-3.421,1.975A1.2,1.2,0,0,1,456.186,243.65Z" transform="translate(-379.988 -201.801)" fill="#1872b8"/>
        <path id="Trazado_1669" data-name="Trazado 1669" d="M465.3,248.913l-3.453-1.994c-.277-.16-.243-.439.078-.624l3.421-1.975a1.2,1.2,0,0,1,1.081-.045l3.453,1.993c.277.16.242.44-.078.625l-3.421,1.975A1.2,1.2,0,0,1,465.3,248.913Z" transform="translate(-383.772 -203.986)" fill="#1872b8"/>
        <path id="Trazado_1670" data-name="Trazado 1670" d="M474.42,254.177l-3.453-1.993c-.277-.16-.243-.44.077-.625l3.422-1.975a1.2,1.2,0,0,1,1.081-.045L479,251.532c.277.16.243.439-.078.624l-3.421,1.975A1.2,1.2,0,0,1,474.42,254.177Z" transform="translate(-387.557 -206.171)" fill="#1872b8"/>
        <path id="Trazado_1671" data-name="Trazado 1671" d="M483.536,259.44l-3.453-1.994c-.277-.16-.242-.439.078-.624l3.421-1.975a1.2,1.2,0,0,1,1.081-.045l3.453,1.993c.277.16.242.44-.078.625l-3.421,1.975A1.2,1.2,0,0,1,483.536,259.44Z" transform="translate(-391.341 -208.356)" fill="#1872b8"/>
        <path id="Trazado_1672" data-name="Trazado 1672" d="M396.687,199.051l-3.453-1.993c-.277-.16-.243-.44.078-.625l3.421-1.975a1.2,1.2,0,0,1,1.081-.045l3.453,1.994c.277.16.243.439-.077.624l-3.422,1.975A1.2,1.2,0,0,1,396.687,199.051Z" transform="translate(-355.289 -183.287)" fill="#1872b8"/>
        <path id="Trazado_1673" data-name="Trazado 1673" d="M387.616,193.813l-3.453-1.994c-.277-.16-.243-.439.077-.624l3.422-1.975a1.2,1.2,0,0,1,1.081-.045l3.453,1.993c.277.16.243.44-.078.625l-3.421,1.975A1.2,1.2,0,0,1,387.616,193.813Z" transform="translate(-351.524 -181.113)" fill="#1872b8"/>
        <path id="Trazado_1674" data-name="Trazado 1674" d="M378.544,188.576l-3.453-1.993c-.277-.16-.242-.44.078-.625l3.421-1.975a1.2,1.2,0,0,1,1.082-.044l3.453,1.993c.277.16.243.44-.078.625l-3.421,1.975A1.2,1.2,0,0,1,378.544,188.576Z" transform="translate(-347.758 -178.939)" fill="#1872b8"/>
        <path id="Trazado_1675" data-name="Trazado 1675" d="M369.473,183.339l-3.453-1.993c-.277-.16-.242-.44.078-.625l3.421-1.975a1.2,1.2,0,0,1,1.081-.044l3.453,1.993c.277.16.242.44-.078.624l-3.421,1.976A1.2,1.2,0,0,1,369.473,183.339Z" transform="translate(-343.992 -176.765)" fill="#1872b8"/>
        <path id="Trazado_1676" data-name="Trazado 1676" d="M378.8,178.892l-3.453-1.994c-.277-.16-.242-.439.078-.624l1.131-.653a1.2,1.2,0,0,1,1.081-.044l3.453,1.993c.277.16.243.44-.078.625l-1.131.653A1.2,1.2,0,0,1,378.8,178.892Z" transform="translate(-347.864 -175.468)" fill="#1872b8"/>
        <path id="Trazado_1677" data-name="Trazado 1677" d="M390.639,185.726l-3.453-1.993c-.277-.16-.242-.44.078-.625l1.131-.653a1.2,1.2,0,0,1,1.082-.045l3.453,1.994c.277.16.243.439-.078.624l-1.131.653A1.2,1.2,0,0,1,390.639,185.726Z" transform="translate(-352.779 -178.305)" fill="#1872b8"/>
        <path id="Trazado_1678" data-name="Trazado 1678" d="M399.672,190.942l-3.453-1.994c-.277-.16-.242-.439.078-.624l1.131-.653a1.2,1.2,0,0,1,1.081-.044l3.453,1.993c.277.16.243.44-.077.625l-1.131.653A1.2,1.2,0,0,1,399.672,190.942Z" transform="translate(-356.528 -180.47)" fill="#1872b8"/>
        <path id="Trazado_1679" data-name="Trazado 1679" d="M408.706,196.157l-3.453-1.993c-.277-.16-.243-.44.078-.625l1.131-.653a1.2,1.2,0,0,1,1.081-.045L411,194.835c.277.16.242.439-.078.624l-1.131.653A1.2,1.2,0,0,1,408.706,196.157Z" transform="translate(-360.278 -182.635)" fill="#1872b8"/>
        <path id="Trazado_1680" data-name="Trazado 1680" d="M417.739,201.373l-3.453-1.994c-.277-.16-.242-.439.078-.624l1.131-.653a1.2,1.2,0,0,1,1.081-.044l3.453,1.993c.277.16.243.439-.078.624l-1.131.653A1.2,1.2,0,0,1,417.739,201.373Z" transform="translate(-364.028 -184.8)" fill="#1872b8"/>
        <path id="Trazado_1681" data-name="Trazado 1681" d="M468.171,230.489l-3.453-1.993c-.277-.16-.242-.439.078-.624l1.131-.653a1.2,1.2,0,0,1,1.081-.044l3.453,1.993c.277.16.243.439-.078.625l-1.131.653A1.2,1.2,0,0,1,468.171,230.489Z" transform="translate(-384.963 -196.887)" fill="#1872b8"/>
        <path id="Trazado_1682" data-name="Trazado 1682" d="M477.2,235.705l-3.453-1.993c-.277-.16-.243-.44.077-.625l1.131-.653a1.2,1.2,0,0,1,1.081-.045l3.453,1.993c.277.16.242.44-.078.625l-1.131.653A1.2,1.2,0,0,1,477.2,235.705Z" transform="translate(-388.713 -199.052)" fill="#1872b8"/>
        <path id="Trazado_1683" data-name="Trazado 1683" d="M486.238,240.92l-3.453-1.993c-.277-.16-.243-.44.078-.625l1.131-.653a1.2,1.2,0,0,1,1.082-.045l3.453,1.994c.277.16.242.439-.078.624l-1.131.653A1.2,1.2,0,0,1,486.238,240.92Z" transform="translate(-392.463 -201.217)" fill="#1872b8"/>
        <path id="Trazado_1684" data-name="Trazado 1684" d="M495.271,246.136l-3.453-1.993c-.277-.16-.242-.44.078-.625l1.131-.653a1.2,1.2,0,0,1,1.081-.044l3.453,1.993c.277.16.243.44-.077.625l-1.131.653A1.2,1.2,0,0,1,495.271,246.136Z" transform="translate(-396.213 -203.382)" fill="#1872b8"/>
        <path id="Trazado_1685" data-name="Trazado 1685" d="M405.8,204.314l-3.453-1.993c-.277-.16-.242-.44.078-.625l3.421-1.975a1.2,1.2,0,0,1,1.082-.044l3.453,1.993c.277.16.242.44-.078.625l-3.421,1.975A1.2,1.2,0,0,1,405.8,204.314Z" transform="translate(-359.073 -185.472)" fill="#1872b8"/>
        <path id="Trazado_1686" data-name="Trazado 1686" d="M414.92,209.578l-3.453-1.994c-.277-.16-.243-.439.078-.624l3.421-1.975a1.2,1.2,0,0,1,1.081-.045l3.453,1.993c.277.16.243.44-.077.625L416,209.533A1.2,1.2,0,0,1,414.92,209.578Z" transform="translate(-362.858 -187.657)" fill="#1872b8"/>
        <path id="Trazado_1687" data-name="Trazado 1687" d="M424.036,214.841l-3.453-1.993c-.277-.16-.242-.44.078-.625l3.421-1.975a1.2,1.2,0,0,1,1.082-.044l3.453,1.993c.277.16.243.439-.078.625l-3.421,1.975A1.2,1.2,0,0,1,424.036,214.841Z" transform="translate(-366.642 -189.842)" fill="#1872b8"/>
        <path id="Trazado_1688" data-name="Trazado 1688" d="M433.153,220.1l-3.453-1.994c-.277-.16-.243-.439.078-.624l3.421-1.975a1.2,1.2,0,0,1,1.081-.045l3.453,1.993c.277.16.242.44-.078.625l-3.421,1.975A1.2,1.2,0,0,1,433.153,220.1Z" transform="translate(-370.426 -192.027)" fill="#1872b8"/>
        <path id="Trazado_1689" data-name="Trazado 1689" d="M442.27,225.368l-3.453-1.993c-.277-.16-.243-.44.077-.625l3.422-1.975a1.2,1.2,0,0,1,1.081-.045l3.453,1.994c.277.16.243.439-.078.624l-3.421,1.975A1.2,1.2,0,0,1,442.27,225.368Z" transform="translate(-374.211 -194.212)" fill="#1872b8"/>
        <path id="Trazado_1690" data-name="Trazado 1690" d="M451.386,230.631l-3.453-1.993c-.277-.16-.243-.439.078-.624l3.421-1.976a1.2,1.2,0,0,1,1.081-.044l3.453,1.993c.277.16.242.44-.078.625l-3.421,1.975A1.2,1.2,0,0,1,451.386,230.631Z" transform="translate(-377.995 -196.397)" fill="#1872b8"/>
        <path id="Trazado_1691" data-name="Trazado 1691" d="M460.5,235.895,457.05,233.9c-.277-.16-.243-.44.077-.625l3.422-1.975a1.2,1.2,0,0,1,1.081-.045l3.453,1.994c.277.16.243.439-.078.624l-3.421,1.975A1.2,1.2,0,0,1,460.5,235.895Z" transform="translate(-381.78 -198.582)" fill="#1872b8"/>
        <path id="Trazado_1692" data-name="Trazado 1692" d="M469.619,241.158l-3.453-1.993c-.277-.16-.242-.44.078-.625l3.421-1.975a1.2,1.2,0,0,1,1.081-.044l3.453,1.993c.277.16.242.44-.078.625l-3.421,1.975A1.2,1.2,0,0,1,469.619,241.158Z" transform="translate(-385.564 -200.766)" fill="#1872b8"/>
        <path id="Trazado_1693" data-name="Trazado 1693" d="M478.736,246.422l-3.453-1.994c-.277-.16-.243-.439.077-.624l3.422-1.975a1.2,1.2,0,0,1,1.081-.045l3.453,1.994c.277.16.243.439-.078.624l-3.421,1.975A1.2,1.2,0,0,1,478.736,246.422Z" transform="translate(-389.349 -202.952)" fill="#1872b8"/>
        <path id="Trazado_1694" data-name="Trazado 1694" d="M348.916,202.212l-10.169-5.871c-.277-.16-.243-.439.078-.624l3.421-1.975a1.2,1.2,0,0,1,1.081-.045l10.169,5.871c.277.16.243.44-.078.624L350,202.167A1.2,1.2,0,0,1,348.916,202.212Z" transform="translate(-332.671 -182.99)" fill="#1872b8"/>
        <path id="Trazado_1695" data-name="Trazado 1695" d="M460.915,266.875,450.746,261c-.277-.16-.243-.44.078-.625l3.421-1.975a1.2,1.2,0,0,1,1.081-.044L465.5,264.23c.277.16.243.44-.078.625L462,266.829A1.2,1.2,0,0,1,460.915,266.875Z" transform="translate(-379.163 -209.832)" fill="#1872b8"/>
        <path id="Trazado_1696" data-name="Trazado 1696" d="M429.223,259.935l-3.453-1.993c-.277-.16-.242-.44.078-.625l4.076-2.353a1.2,1.2,0,0,1,1.081-.045l3.453,1.994c.277.16.242.439-.078.624L430.3,259.89A1.2,1.2,0,0,1,429.223,259.935Z" transform="translate(-368.795 -208.404)" fill="#1872b8"/>
        <path id="Trazado_1697" data-name="Trazado 1697" d="M361.55,220.864l-5.522-3.188c-.277-.16-.243-.44.078-.625l4.076-2.353a1.2,1.2,0,0,1,1.081-.044l5.522,3.188c.277.16.243.44-.078.625l-4.076,2.353A1.2,1.2,0,0,1,361.55,220.864Z" transform="translate(-339.844 -191.69)" fill="#1872b8"/>
        <path id="Trazado_1698" data-name="Trazado 1698" d="M418.971,254.016l-5.522-3.188c-.277-.16-.243-.44.077-.625l4.076-2.353a1.2,1.2,0,0,1,1.081-.045l5.523,3.188c.277.16.242.44-.078.625l-4.075,2.353A1.2,1.2,0,0,1,418.971,254.016Z" transform="translate(-363.68 -205.451)" fill="#1872b8"/>
        <path id="Trazado_1699" data-name="Trazado 1699" d="M374.7,228.458l-5.522-3.188c-.277-.16-.242-.44.078-.625l4.076-2.353a1.2,1.2,0,0,1,1.081-.044l5.522,3.188c.277.16.243.44-.078.625l-4.076,2.353A1.2,1.2,0,0,1,374.7,228.458Z" transform="translate(-345.305 -194.842)" fill="#1872b8"/>
        <path id="Trazado_1700" data-name="Trazado 1700" d="M374.613,222.362l24.008,13.861a.329.329,0,0,1,0,.623l-4.156,2.4a1.193,1.193,0,0,1-1.079,0l-24.008-13.861Z" transform="translate(-345.464 -194.934)" fill="#1872b8"/>
        <path id="Trazado_1701" data-name="Trazado 1701" d="M455.319,273.052l3.846,2.221c.227.131.2.36-.063.512l-1.668.962a.985.985,0,0,1-.886.037l-3.846-2.22c-.228-.132-.2-.36.064-.512l1.667-.963A.986.986,0,0,1,455.319,273.052Z" transform="translate(-379.989 -215.94)" fill="#1872b8"/>
        <path id="Trazado_1702" data-name="Trazado 1702" d="M446.127,267.745l3.846,2.22c.228.132.2.361-.063.512l-1.668.962a.986.986,0,0,1-.887.037l-3.846-2.22c-.227-.132-.2-.361.063-.512l1.668-.962A.986.986,0,0,1,446.127,267.745Z" transform="translate(-376.173 -213.737)" fill="#1872b8"/>
        <path id="Trazado_1703" data-name="Trazado 1703" d="M437.011,262.482l3.846,2.22c.227.131.2.36-.064.512l-1.667.963a.986.986,0,0,1-.887.037l-3.846-2.221c-.227-.131-.2-.36.064-.512l1.667-.963A.984.984,0,0,1,437.011,262.482Z" transform="translate(-372.389 -211.551)" fill="#1872b8"/>
        <path id="Trazado_1704" data-name="Trazado 1704" d="M451.162,264.838l3.846,2.221c.227.131.2.36-.064.512l-1.668.963a.985.985,0,0,1-.886.037l-3.846-2.221c-.227-.131-.2-.36.064-.512l1.667-.963A.986.986,0,0,1,451.162,264.838Z" transform="translate(-378.263 -212.53)" fill="#1872b8"/>
      </g>
      <path id="Trazado_1705" data-name="Trazado 1705" d="M468.755,149.1l-28.722-16.582.369-1.867,28.722,16.582Z" transform="translate(-23543.936 -23664.027)" fill="#6cbfff"/>
      <path id="Trazado_1706" data-name="Trazado 1706" d="M457.322,158.044l-20.049-11.575.369-1.867,20.049,11.575Z" transform="translate(-23542.791 -23669.816)" fill="#a8d6fa"/>
      <path id="Trazado_1707" data-name="Trazado 1707" d="M456,149.509l-17.345-10.014.369-1.867,17.345,10.014Z" transform="translate(-23543.363 -23666.922)" fill="#fff"/>
      <path id="Trazado_1708" data-name="Trazado 1708" d="M481.6,164.293l-8.672-5.007.369-1.867,8.672,5.007Z" transform="translate(-23557.592 -23675.137)" fill="red"/>
      <path id="Trazado_1709" data-name="Trazado 1709" d="M428.649,101.115l-8.672-5.007.369-1.867,8.672,5.007Z" transform="translate(-23535.609 -23648.912)" fill="#6cbfff"/>
      <path id="Trazado_1710" data-name="Trazado 1710" d="M427.04,108.534l-8.672-5.007.369-1.867,8.672,5.007Z" transform="translate(-23534.941 -23651.992)" fill="#fff"/>
      <path id="Trazado_1711" data-name="Trazado 1711" d="M499.815,211.439l-8.672-5.007.37-1.867,8.672,5.007Z" transform="translate(-23565.152 -23694.709)" fill="#a8d6fa"/>
      <path id="Trazado_1712" data-name="Trazado 1712" d="M423.822,123.372l-8.672-5.007.369-1.867,8.672,5.007Z" transform="translate(-23533.607 -23658.15)" fill="#6cbfff"/>
      <path id="Trazado_1713" data-name="Trazado 1713" d="M460.431,129.227a1.082,1.082,0,0,1-1.559.48,1.357,1.357,0,0,1-.559-1.7,1.082,1.082,0,0,1,1.559-.48A1.357,1.357,0,0,1,460.431,129.227Z" transform="translate(-23551.479 -23662.662)" fill="red"/>
      <path id="Trazado_1714" data-name="Trazado 1714" d="M466.818,132.915a1.083,1.083,0,0,1-1.559.48,1.357,1.357,0,0,1-.559-1.7,1.082,1.082,0,0,1,1.559-.48A1.358,1.358,0,0,1,466.818,132.915Z" transform="translate(-23554.129 -23664.193)" fill="#fff"/>
      <path id="Trazado_1715" data-name="Trazado 1715" d="M473.2,136.6a1.082,1.082,0,0,1-1.559.48,1.358,1.358,0,0,1-.559-1.7,1.083,1.083,0,0,1,1.559-.48A1.357,1.357,0,0,1,473.2,136.6Z" transform="translate(-23556.779 -23665.723)" fill="#008fff"/>
      <path id="Trazado_1716" data-name="Trazado 1716" d="M479.591,140.289a1.082,1.082,0,0,1-1.559.48,1.357,1.357,0,0,1-.559-1.7,1.082,1.082,0,0,1,1.559-.48A1.357,1.357,0,0,1,479.591,140.289Z" transform="translate(-23559.432 -23667.254)" fill="red"/>
      <path id="Trazado_1717" data-name="Trazado 1717" d="M503.552,345.018a4.649,4.649,0,0,0-4.205,0l-54.241,31.328a1.282,1.282,0,0,0,0,2.428,4.649,4.649,0,0,0,4.205,0l54.241-31.328A1.282,1.282,0,0,0,503.552,345.018Z" transform="translate(-23545.68 -23752.805)" fill="#173d7a" opacity="0.5"/>
      <path id="Trazado_1718" data-name="Trazado 1718" d="M558.989,316.277h0a.238.238,0,0,0-.255-.112l-3.281.712,1.292,2.2,2.218-2.52A.239.239,0,0,0,558.989,316.277Z" transform="translate(-23591.848 -23741.033)" fill="#d4ecff"/>
      <g id="Grupo_1941" data-name="Grupo 1941" transform="translate(-23072.318 -23424.51)">
        <path id="Trazado_1719" data-name="Trazado 1719" d="M550.578,318.156a1.642,1.642,0,0,0-.753-1.28.536.536,0,0,0-.492-.061,20.954,20.954,0,0,0-10.789,2.889l-.237.139,4.076,6.933,1.2-.8a20.953,20.953,0,0,0,6.29-6.521l.515-.841A.538.538,0,0,0,550.578,318.156Z" transform="translate(-512.412 -316.78)" fill="#5793ce"/>
        <path id="Trazado_1720" data-name="Trazado 1720" d="M542.62,326.966a6.283,6.283,0,0,0-2.882-4.9c-1.577-.895-2.845-.15-2.83,1.663a6.284,6.284,0,0,0,2.882,4.9C541.366,329.523,542.634,328.779,542.62,326.966Z" transform="translate(-511.831 -318.816)" fill="#d4ecff"/>
        <path id="Trazado_1721" data-name="Trazado 1721" d="M500.5,344.02l24.187-15.069-4.075-6.933-24.928,13.809Z" transform="translate(-494.72 -318.954)" fill="#d4ecff"/>
        <path id="Trazado_1722" data-name="Trazado 1722" d="M500.784,351.474a7.425,7.425,0,0,0-3.405-5.793c-1.863-1.057-3.361-.177-3.344,1.966a7.428,7.428,0,0,0,3.405,5.793C499.3,354.5,500.8,353.617,500.784,351.474Z" transform="translate(-494.034 -328.592)" fill="#d4ecff"/>
      </g>
      <g id="Grupo_1942" data-name="Grupo 1942" transform="translate(-23105.697 -23407.057)">
        <path id="Trazado_1723" data-name="Trazado 1723" d="M498.424,352.861a7.425,7.425,0,0,0-3.405-5.793c-1.863-1.057-3.361-.177-3.344,1.966a7.427,7.427,0,0,0,3.405,5.793C496.944,355.884,498.441,355,498.424,352.861Z" transform="translate(-459.676 -346.621)" fill="#d4ecff"/>
        <rect id="Rectángulo_408" data-name="Rectángulo 408" width="37.118" height="9.503" transform="matrix(0.862, -0.507, 0.507, 0.862, 0.967, 19.039)" fill="#d4ecff"/>
        <path id="Trazado_1724" data-name="Trazado 1724" d="M443.714,385.02a7.428,7.428,0,0,0-3.405-5.793c-1.864-1.057-3.361-.177-3.344,1.966a7.426,7.426,0,0,0,3.4,5.793C442.234,388.043,443.731,387.162,443.714,385.02Z" transform="translate(-436.965 -359.97)" fill="#d4ecff"/>
        <path id="Trazado_1725" data-name="Trazado 1725" d="M443.361,385.561a4.907,4.907,0,0,0-2.3-3.519c-1.2-.678-2.107-.2-2.034,1.061a4.906,4.906,0,0,0,2.3,3.519C442.524,387.3,443.435,386.826,443.361,385.561Z" transform="translate(-437.819 -361.197)" fill="#396caa"/>
      </g>
      <g id="Grupo_1943" data-name="Grupo 1943" transform="translate(-23073.889 -23408.449)">
        <path id="Trazado_1726" data-name="Trazado 1726" d="M502.156,350.919a7.424,7.424,0,0,0-3.405-5.793,2.625,2.625,0,0,0-2-.374,2.144,2.144,0,0,1,2.727-.067,7.428,7.428,0,0,1,3.405,5.793c.01,1.279-.522,2.1-1.348,2.339A2.656,2.656,0,0,0,502.156,350.919Z" transform="translate(-493.594 -344.241)" fill="#fff"/>
        <path id="Trazado_1727" data-name="Trazado 1727" d="M500.6,351.23a7.427,7.427,0,0,0-3.405-5.793,2.362,2.362,0,0,0-2.378-.216L493,346.286l.864,1.47a7.589,7.589,0,0,0,3.088,5.253l.865,1.47,1.813-1.066h0A2.363,2.363,0,0,0,500.6,351.23Z" transform="translate(-492.036 -344.552)" fill="#5793ce"/>
        <path id="Trazado_1728" data-name="Trazado 1728" d="M498.1,353.052a7.425,7.425,0,0,0-3.405-5.793c-1.863-1.057-3.361-.177-3.344,1.966a7.425,7.425,0,0,0,3.405,5.793C496.619,356.075,498.116,355.195,498.1,353.052Z" transform="translate(-491.35 -345.308)" fill="#d4ecff"/>
      </g>
      <path id="Trazado_1729" data-name="Trazado 1729" d="M436.858,387.4l-2.078-3.535L428,387.847a2.05,2.05,0,0,0-.729,2.806h0a2.051,2.051,0,0,0,2.806.728Z" transform="translate(-23538.52 -23769.137)" fill="red"/>
      <path id="Trazado_1730" data-name="Trazado 1730" d="M442.511,386.383a3.206,3.206,0,0,0-1.469-2.5c-.8-.456-1.451-.076-1.443.849a3.205,3.205,0,0,0,1.469,2.5C441.872,387.687,442.518,387.307,442.511,386.383Z" transform="translate(-23543.756 -23769.066)" fill="#ff2c9c"/>
      <g id="Grupo_1946" data-name="Grupo 1946" transform="translate(-23102.861 -23405.342)">
        <path id="Trazado_1731" data-name="Trazado 1731" d="M450.969,359.736l-1.017-.577a2.166,2.166,0,0,0-2.176.233l-3.485,2.049a2.653,2.653,0,0,0-1.183,2.085l.014,1.745a1.431,1.431,0,0,1-.351.876l.13.808-.869-.5h0a.446.446,0,0,1-.208-.425l-.013-1.744a5.534,5.534,0,0,1,2.465-4.349l3.485-2.048a3.078,3.078,0,0,1,3.095-.331l1.017.577a2.165,2.165,0,0,0,2.176-.233l14.05-8.258a.45.45,0,0,1,.464-.045h0l.867.5-.742.285a1.434,1.434,0,0,1-.577.766l-14.05,8.258A3.078,3.078,0,0,1,450.969,359.736Z" transform="translate(-441.814 -349.554)" fill="#5793ce"/>
        <path id="Trazado_1732" data-name="Trazado 1732" d="M451.457,360.02a2.164,2.164,0,0,0-2.176.233L445.8,362.3a2.655,2.655,0,0,0-1.183,2.086l.014,1.744a1.44,1.44,0,0,1-.642,1.132c-.357.21-.65.044-.653-.37l-.013-1.745a5.532,5.532,0,0,1,2.465-4.348l3.485-2.049a3.079,3.079,0,0,1,3.095-.331l1.017.577a2.165,2.165,0,0,0,2.176-.233l14.05-8.258c.357-.21.65-.044.653.37a1.437,1.437,0,0,1-.641,1.132l-14.05,8.258a3.079,3.079,0,0,1-3.095.331Z" transform="translate(-442.439 -349.911)" fill="#5793ce"/>
        <g id="Grupo_1945" data-name="Grupo 1945" transform="translate(2.131 14.323)">
          <path id="Trazado_1733" data-name="Trazado 1733" d="M445.458,374.482l.013,1.745c0,.011-.005.023-.005.035a1.134,1.134,0,0,0,.049-.323l-.014-1.744c0-.05.008-.1.012-.153A1.979,1.979,0,0,0,445.458,374.482Z" transform="translate(-445.458 -374.042)" fill="#fff"/>
        </g>
      </g>
      <path id="Trazado_1787" data-name="Trazado 1787" d="M205.735,271.346c-5.176,2.989-13.569,2.989-18.745,0s-5.176-7.834,0-10.822,13.568-2.989,18.744,0S210.911,268.358,205.735,271.346Z" transform="translate(-23437.283 -23717.008)" fill="#173d7a" opacity="0.5"/>
      <path id="Trazado_1788" data-name="Trazado 1788" d="M210.147,252.961v-4.234h-.8a9.628,9.628,0,0,0-3.618-3.384c-5.889-3.4-15.436-3.4-21.326,0a9.63,9.63,0,0,0-3.617,3.384h-.8v4.211h0c-.011,2.235,1.46,4.473,4.415,6.179,5.889,3.4,15.437,3.4,21.326,0C208.675,257.417,210.147,255.189,210.147,252.961Z" transform="translate(-23435.988 -23710.578)" fill="url(#linear-gradient)"/>
      <ellipse id="Elipse_529" data-name="Elipse 529" cx="15.079" cy="8.706" rx="15.079" ry="8.706" transform="translate(-23256 -23470.557)" fill="red"/>
      <path id="Trazado_1789" data-name="Trazado 1789" d="M205.741,259.29c-5.889,3.4-15.436,3.4-21.326,0-2.822-1.63-4.277-3.744-4.394-5.879-.127,2.32,1.327,4.663,4.394,6.433,5.889,3.4,15.437,3.4,21.326,0,3.067-1.77,4.521-4.113,4.394-6.433C210.018,255.546,208.563,257.661,205.741,259.29Z" transform="translate(-23435.998 -23714.984)" fill="#fff"/>
      <g id="Grupo_1964" data-name="Grupo 1964" transform="translate(-23248.586 -23465.979)">
        <path id="Trazado_1790" data-name="Trazado 1790" d="M193.061,252.891a.678.678,0,0,1-.4-.556l.015-5.672c0-.432.61-.783,1.359-.782s1.355.352,1.355.785l-.012,4.7,13.651-1.672c.734-.09,1.454.181,1.61.6s-.313.839-1.046.929L194.3,253.1a2.15,2.15,0,0,1-1.137-.158C193.129,252.928,193.093,252.91,193.061,252.891Z" transform="translate(-192.663 -245.881)" fill="#fff"/>
      </g>
      <path id="Trazado_1791" data-name="Trazado 1791" d="M354.027,99.379,331.519,86.388a1.364,1.364,0,0,0-1.278-.093l0-.015-2.683,1.261s1.008.352,1.6.56l-3.248,16.386a3.421,3.421,0,0,0,1.333,3.459l21.513,12.417-.381,1.923,2.71-1.27-.012,0a1.957,1.957,0,0,0,.968-1.443l3.316-16.731A3.42,3.42,0,0,0,354.027,99.379Z" transform="translate(-23496.537 -23645.564)" fill="#006cc1"/>
      <path id="Trazado_1792" data-name="Trazado 1792" d="M345.083,123.123l-22.508-12.991a3.42,3.42,0,0,1-1.332-3.459l3.316-16.731c.264-1.334,1.29-1.947,2.29-1.369l22.508,12.992a3.42,3.42,0,0,1,1.332,3.459l-3.316,16.731C347.109,123.088,346.083,123.7,345.083,123.123Z" transform="translate(-23494.598 -23646.469)" fill="#008fff"/>
      <path id="Trazado_1793" data-name="Trazado 1793" d="M353.207,101.223,330.7,88.232a1.346,1.346,0,0,0-1.477.012,1.426,1.426,0,0,1,.966.188l22.508,12.992a3.42,3.42,0,0,1,1.332,3.459l-3.316,16.731a2.063,2.063,0,0,1-.812,1.356,1.775,1.775,0,0,0,1.324-1.557l3.316-16.731A3.42,3.42,0,0,0,353.207,101.223Z" transform="translate(-23497.938 -23646.328)" fill="#fff"/>
      <g id="Grupo_1967" data-name="Grupo 1967" transform="translate(-23165.521 -23544.939)">
        <path id="Trazado_1794" data-name="Trazado 1794" d="M337.757,113.716a1.189,1.189,0,0,1-1.866.876,2.639,2.639,0,0,1-1.172-2.629,1.189,1.189,0,0,1,1.866-.877A2.64,2.64,0,0,1,337.757,113.716Z" transform="translate(-334.68 -110.879)" fill="#fff"/>
        <ellipse id="Elipse_530" data-name="Elipse 530" cx="1.457" cy="2.036" rx="1.457" ry="2.036" transform="translate(4.027 3.304) rotate(-22.798)" fill="#fff"/>
        <path id="Trazado_1795" data-name="Trazado 1795" d="M353.489,122.8a1.189,1.189,0,0,1-1.866.876,2.639,2.639,0,0,1-1.172-2.629,1.189,1.189,0,0,1,1.866-.877A2.64,2.64,0,0,1,353.489,122.8Z" transform="translate(-341.211 -114.649)" fill="#fff"/>
      </g>
      <path id="Trazado_1796" data-name="Trazado 1796" d="M504.1,52.168,481.6,39.177a1.364,1.364,0,0,0-1.278-.093l0-.015L477.64,40.33l1.6.56-3.248,16.386a3.42,3.42,0,0,0,1.332,3.459l21.513,12.417-.381,1.923,2.71-1.27-.013,0a1.959,1.959,0,0,0,.968-1.444l3.317-16.731A3.421,3.421,0,0,0,504.1,52.168Z" transform="translate(-23558.836 -23625.967)" fill="#5793ce"/>
      <path id="Trazado_1797" data-name="Trazado 1797" d="M495.161,75.913,472.652,62.922a3.421,3.421,0,0,1-1.332-3.46l3.317-16.731c.264-1.334,1.289-1.946,2.289-1.369l22.508,12.991a3.42,3.42,0,0,1,1.332,3.459L497.45,74.544C497.186,75.877,496.161,76.49,495.161,75.913Z" transform="translate(-23556.896 -23626.871)" fill="#d4ecff"/>
      <path id="Trazado_1798" data-name="Trazado 1798" d="M503.284,54.012,480.775,41.021a1.345,1.345,0,0,0-1.477.013,1.427,1.427,0,0,1,.966.188l22.508,12.991a3.42,3.42,0,0,1,1.332,3.459L500.788,74.4a2.066,2.066,0,0,1-.812,1.356A1.777,1.777,0,0,0,501.3,74.2l3.316-16.731A3.421,3.421,0,0,0,503.284,54.012Z" transform="translate(-23560.234 -23626.73)" fill="#fff"/>
      <g id="Grupo_1970" data-name="Grupo 1970" transform="translate(-23077.744 -23572.553)">
        <path id="Trazado_1799" data-name="Trazado 1799" d="M487.835,66.506a1.19,1.19,0,0,1-1.866.877,2.64,2.64,0,0,1-1.172-2.63,1.19,1.19,0,0,1,1.866-.877A2.64,2.64,0,0,1,487.835,66.506Z" transform="translate(-484.757 -63.669)" fill="#fff"/>
        <path id="Trazado_1800" data-name="Trazado 1800" d="M495.7,71.046a1.19,1.19,0,0,1-1.866.877,2.64,2.64,0,0,1-1.172-2.63,1.19,1.19,0,0,1,1.866-.877A2.64,2.64,0,0,1,495.7,71.046Z" transform="translate(-488.023 -65.554)" fill="#fff"/>
        <path id="Trazado_1801" data-name="Trazado 1801" d="M503.566,75.586a1.189,1.189,0,0,1-1.866.877,2.64,2.64,0,0,1-1.172-2.63,1.19,1.19,0,0,1,1.866-.877A2.639,2.639,0,0,1,503.566,75.586Z" transform="translate(-491.288 -67.438)" fill="#fff"/>
      </g>
    </g>
  </g>
</svg>
