<svg xmlns="http://www.w3.org/2000/svg" width="36.625" height="45.001" viewBox="0 0 36.625 45.001">
  <g id="Grupo_2173" data-name="Grupo 2173" transform="translate(12100 -15199)">
    <g id="Grupo_2172" data-name="Grupo 2172">
      <path id="path890" d="M4.65,0A4.656,4.656,0,0,0,0,4.649v35.7A4.656,4.656,0,0,0,4.65,45H31.969a4.656,4.656,0,0,0,4.65-4.649V10.994a3.845,3.845,0,0,0-.3-1.7,4.7,4.7,0,0,0-.92-1.33l0-.006L28.616,1.319l-.011-.011A5.362,5.362,0,0,0,27.169.389,5.255,5.255,0,0,0,25.118,0H4.65Z" transform="translate(-12100 15199)" fill="#ff2116"/>
      <path id="rect2684" d="M12.03,8.909h20.5a4.365,4.365,0,0,1,1.418.265,3.888,3.888,0,0,1,.988.624l0,0L41.7,16.429a3.731,3.731,0,0,1,.6.872,3.309,3.309,0,0,1,.169,1.01c0,.011,0,.021,0,.032v29.39a3.1,3.1,0,0,1-3.122,3.122H12.03a3.1,3.1,0,0,1-3.122-3.122v-35.7A3.1,3.1,0,0,1,12.03,8.909Z" transform="translate(-12107.38 15191.618)" fill="#f5f5f5"/>
      <path id="path2697" d="M51.457,68.691c-1.051-1.051.086-2.495,3.173-4.028l1.942-.965.757-1.655c.416-.91,1.037-2.395,1.38-3.3l.624-1.645-.43-1.218a8.692,8.692,0,0,1-.382-4.556c.454-1.1,1.942-.983,2.531.191.46.917.413,2.579-.132,4.674l-.447,1.718.394.668a23.145,23.145,0,0,0,1.406,1.938l1.046,1.3,1.3-.17c4.135-.539,5.551.377,5.551,1.691,0,1.658-3.247,1.8-5.973-.118a8.284,8.284,0,0,1-1.035-.858s-1.708.347-2.549.574c-.868.234-1.3.38-2.573.809,0,0-.446.647-.737,1.118a12.048,12.048,0,0,1-3.246,3.731A2.214,2.214,0,0,1,51.457,68.691Zm1.65-.589a12.438,12.438,0,0,0,2.615-3.091l.335-.531-1.527.767c-2.358,1.185-3.436,2.3-2.875,2.977.315.379.692.348,1.451-.121Zm15.314-4.3a.886.886,0,0,0-.159-1.549,4.292,4.292,0,0,0-2.24-.289c-.812.055-2.118.219-2.339.269,0,0,.717.5,1.036.678a13.773,13.773,0,0,0,2.206.921c.742.227,1.171.2,1.5-.029Zm-6.158-2.558a15.074,15.074,0,0,1-1.322-1.7,9.488,9.488,0,0,1-.741-1.1s-.361,1.159-.656,1.856l-.923,2.28-.268.517s1.423-.466,2.146-.655c.767-.2,2.322-.506,2.322-.506ZM60.28,53.3a3.339,3.339,0,0,0-.114-1.872c-.667-.729-1.473-.121-1.336,1.612a11.805,11.805,0,0,0,.385,2.194l.352,1.117.248-.841a22.047,22.047,0,0,0,.465-2.21Z" transform="translate(-12142.313 15157.103)" fill="#ff2116"/>
      <path id="path845" d="M63.725,184.673h1.707a4.638,4.638,0,0,1,1.328.157,1.558,1.558,0,0,1,.858.681,2.237,2.237,0,0,1,.349,1.267,2.3,2.3,0,0,1-.283,1.171,1.66,1.66,0,0,1-.762.707,3.717,3.717,0,0,1-1.465.217h-.591v2.69H63.725Zm1.141.883v2.4h.566a1.49,1.49,0,0,0,1.045-.283,1.234,1.234,0,0,0,.293-.919,1.377,1.377,0,0,0-.192-.767.787.787,0,0,0-.424-.363,2.656,2.656,0,0,0-.722-.071Z" transform="translate(-12152.793 15045.985)" fill="#2c2c2c"/>
      <path id="path847" d="M93.548,184.673H95.1a3.5,3.5,0,0,1,1.8.4,2.478,2.478,0,0,1,1.02,1.186A4.266,4.266,0,0,1,98.265,188a4.871,4.871,0,0,1-.313,1.8A2.865,2.865,0,0,1,97,191.078a2.954,2.954,0,0,1-1.818.484H93.548Zm1.141.914v5.062h.475a1.6,1.6,0,0,0,1.444-.686,3.338,3.338,0,0,0,.45-1.842q0-2.533-1.894-2.533Z" transform="translate(-12177.501 15045.985)" fill="#2c2c2c"/>
      <path id="path849" d="M127.433,184.673h3.828v.914h-2.687v2.059h2.151v.914h-2.151v3h-1.141Z" transform="translate(-12205.572 15045.985)" fill="#2c2c2c"/>
    </g>
  </g>
</svg>
