<?xml version="1.0" encoding="utf-8"?>
<!-- Generator: Adobe Illustrator 23.0.1, SVG Export Plug-In . SVG Version: 6.00 Build 0)  -->
<svg version="1.1" id="Layer_1" xmlns="http://www.w3.org/2000/svg" xmlns:xlink="http://www.w3.org/1999/xlink" x="0px" y="0px"
	 viewBox="0 0 187.5 56.7" style="enable-background:new 0 0 187.5 56.7;" xml:space="preserve">
<style type="text/css">
	.st0{fill:url(#SVGID_1_);}
	.st1{fill:#FF0000;}
	.st2{enable-background:new    ;}
</style>
<linearGradient id="SVGID_1_" gradientUnits="userSpaceOnUse" x1="-181.5979" y1="169.489" x2="-182.5979" y2="168.84" gradientTransform="matrix(54.609 0 0 -34.503 10002.3115 5876.229)">
	<stop  offset="0" style="stop-color:#85000A"/>
	<stop  offset="0.102" style="stop-color:#880009"/>
	<stop  offset="0.235" style="stop-color:#B20006"/>
	<stop  offset="0.449" style="stop-color:#D30003"/>
	<stop  offset="0.544" style="stop-color:#DE0002"/>
	<stop  offset="0.652" style="stop-color:#EB0001"/>
	<stop  offset="0.841" style="stop-color:#FA0000"/>
	<stop  offset="0.933" style="stop-color:#FF0000"/>
	<stop  offset="1" style="stop-color:#FF0000"/>
</linearGradient>
<path class="st0" d="M85.6,22.2L31,44.4v12.4l54.6-22.1V22.2z"/>
<path class="st1" d="M85.6,34.5L31,12.4V0l54.6,22.1V34.5z"/>
<g class="st2">
	<path d="M1.4,20h6c2.2,0,3.7,0.5,4.7,1.4c1,0.9,1.5,2.2,1.5,3.8v0.1c0,1.6-0.5,2.8-1.5,3.6c-1,0.8-2.5,1.3-4.5,1.3H6.1v4.9H1.4V20z
		 M7.1,27C8.4,27,9,26.4,9,25.3v-0.1c0-0.6-0.2-1-0.5-1.3s-0.8-0.4-1.4-0.4h-1V27H7.1z"/>
	<path d="M15.3,20h6.2l2.5,7.3l2.6-7.3h6v15h-4.7v-8.9l-3.4,8.9h-1.6l-3.4-8.9v8.9h-4.2V20z"/>
	<path d="M42.6,35.3c-1.2,0-2.3-0.2-3.3-0.6c-1-0.4-1.8-0.9-2.5-1.6c-0.7-0.7-1.2-1.5-1.6-2.4c-0.4-0.9-0.5-2-0.5-3.1v-0.2
		c0-1.2,0.2-2.2,0.6-3.2c0.4-0.9,1-1.8,1.7-2.4c0.7-0.7,1.6-1.2,2.6-1.5c1-0.4,2-0.5,3.1-0.5c1.1,0,2.2,0.2,3.2,0.5s1.8,0.8,2.6,1.5
		c0.7,0.6,1.3,1.4,1.7,2.4c0.4,0.9,0.6,2,0.6,3.2v0.2c0,1.2-0.2,2.2-0.6,3.2c-0.4,1-0.9,1.8-1.6,2.5c-0.7,0.7-1.6,1.2-2.6,1.6
		C44.9,35.1,43.8,35.3,42.6,35.3z M42.7,31.6c0.9,0,1.7-0.3,2.2-1c0.6-0.7,0.8-1.7,0.8-2.9v-0.2c0-1.3-0.3-2.2-0.8-2.9
		c-0.6-0.7-1.3-1-2.3-1c-0.9,0-1.7,0.3-2.2,1c-0.6,0.7-0.8,1.6-0.8,2.9v0.2c0,1.3,0.3,2.3,0.8,2.9C41,31.3,41.7,31.6,42.7,31.6z"/>
</g>
<g transform="translate(-20900 -7198.977)">
	<path d="M21024.9,7232h2.9v-11.6h-2.9V7232z M21039.4,7224.3c0-2.1-1.4-3.8-4.4-3.8h-6v11.6h2.8v-9.2h3.4c0.7-0.1,1.4,0.4,1.4,1.1
		c0,0.1,0,0.1,0,0.2c0,0.7-0.5,1.3-1.2,1.4c-0.1,0-0.2,0-0.2,0h-2.4l3.6,6.4h2.9c0,0-2.5-4.2-2.5-4.2
		C21038.4,7227.4,21039.5,7225.9,21039.4,7224.3 M21015.9,7220.4l-5.9,11.6h3.5l0.9-1.9h4l-1.3-2.6h-1.6l1.5-3.2l3.8,7.6h3.5
		l-6.1-11.6H21015.9z M21070.3,7224.9c-2.4-0.5-3.1-0.7-3.1-1.5c0-0.7,0.9-1,2.2-1c1.3,0.1,2.6,0.4,3.7,1.1l0.9-2.4
		c-1.6-0.7-3.4-1.1-5.2-1.1c-2.8,0-4.6,1.6-4.6,3.7c0,2,1.5,2.9,4.3,3.5c2.2,0.5,2.8,0.8,2.8,1.5s-0.9,0.9-2.1,0.9
		c-1.6-0.1-3.1-0.5-4.5-1.1l-0.9,2.3c1.7,0.9,3.6,1.4,5.6,1.4c3.5,0,4.9-1.7,4.9-3.6C21074.5,7226.9,21073.3,7225.5,21070.3,7224.9
		 M21060.2,7220.4v6.5c0.2,1.4-0.8,2.6-2.1,2.8c-0.2,0-0.3,0-0.5,0c-1.4,0-2.6-0.8-2.6-2.8v-6.5h-2.9v6.5c0,4.2,2.4,5.4,5.5,5.4
		c3,0,5.5-1.2,5.5-5.4v-6.5H21060.2z M21049.7,7226c0.7-0.6,1.1-1.5,1-2.4c0-1.8-1.6-3.3-3.4-3.3c0,0,0,0,0,0h-6.8v11.6h7.1
		c1.9,0.1,3.6-1.5,3.6-3.4C21051.2,7227.5,21050.6,7226.5,21049.7,7226 M21043.3,7222.9h4c0.5,0,1,0.4,1,1c0,0.6-0.5,1-1,1h-4
		L21043.3,7222.9L21043.3,7222.9z M21047.4,7229.6h-4.1v-2.3h4.1c0.6,0,1.2,0.5,1.2,1.1C21048.6,7229.1,21048,7229.6,21047.4,7229.6
		"/>
</g>
<g class="st2">
	<path d="M94.3,23.7c-0.5,0-0.8-0.1-1.1-0.4c-0.3-0.3-0.5-0.6-0.5-1.1c0-0.4,0.2-0.8,0.5-1.1c0.3-0.3,0.7-0.4,1.1-0.4
		c0.4,0,0.8,0.1,1.1,0.4c0.3,0.3,0.5,0.6,0.5,1.1c0,0.4-0.2,0.8-0.5,1.1C95.1,23.5,94.7,23.7,94.3,23.7z M92.8,24.3h2.9v7.8h-2.9
		V24.3z"/>
	<path d="M97.3,24.3h3v1.3c0.2-0.4,0.5-0.8,1-1c0.4-0.3,1-0.4,1.6-0.4c0.4,0,0.7,0.1,1,0.2c0.3,0.1,0.6,0.3,0.8,0.5
		c0.2,0.2,0.4,0.5,0.5,0.9c0.1,0.4,0.2,0.8,0.2,1.3v5.2h-3v-4.5c0-0.4-0.1-0.7-0.2-0.9c-0.2-0.2-0.4-0.3-0.8-0.3
		c-0.4,0-0.7,0.1-0.9,0.3s-0.3,0.6-0.3,1v4.3h-3V24.3z"/>
</g>
</svg>
