<svg xmlns="http://www.w3.org/2000/svg" xmlns:xlink="http://www.w3.org/1999/xlink" viewBox="0 0 187 56" id="el_qUwRXfsH5"><style>@-webkit-keyframes kf_el_rUnn1hMSxU_an_bwiuCL9Lf{0%{opacity: 0;}100%{opacity: 1;}}@keyframes kf_el_rUnn1hMSxU_an_bwiuCL9Lf{0%{opacity: 0;}100%{opacity: 1;}}#el_qUwRXfsH5 *{-webkit-animation-duration: 3s;animation-duration: 3s;-webkit-animation-iteration-count: 1;animation-iteration-count: 1;-webkit-animation-timing-function: cubic-bezier(0, 0, 1, 1);animation-timing-function: cubic-bezier(0, 0, 1, 1);}#el_rUnn1hMSxU{-webkit-transform: translate(21023px, 7220.056px);transform: translate(21023px, 7220.056px);-webkit-animation-fill-mode: backwards;animation-fill-mode: backwards;opacity: 0;-webkit-animation-name: kf_el_rUnn1hMSxU_an_bwiuCL9Lf;animation-name: kf_el_rUnn1hMSxU_an_bwiuCL9Lf;-webkit-animation-timing-function: cubic-bezier(0, 0, 1, 1);animation-timing-function: cubic-bezier(0, 0, 1, 1);}#el_tVsiUQouqX{-webkit-transform: translate(-21060px, -7232px);transform: translate(-21060px, -7232px);}#el_WI7glCAiMx{-webkit-transform: translate(-206.011px, -75.287px);transform: translate(-206.011px, -75.287px);fill: url(#a);}#el_fDC7N859Qg{-webkit-transform: translate(-206.011px, -97.497px);transform: translate(-206.011px, -97.497px);fill: red;}#el_Zurj2brRPg{-webkit-transform: translate(37px, 47px);transform: translate(37px, 47px);}#el_DxQb2E4Eje{-webkit-transform: translate(-20900px, -7198.977px);transform: translate(-20900px, -7198.977px);}#el_pwkYT0FUz6{-webkit-transform: translate(0px, -0.2px);transform: translate(0px, -0.2px);}#el_7Aap-4x2qu{-webkit-transform: translate(-20918px, -7187.943px);transform: translate(-20918px, -7187.943px);}</style><defs><linearGradient id="a" x1="1" y1="0.184" x2="0" y2="0.833" gradientUnits="objectBoundingBox"><stop offset="0" stop-color="#85000a"/><stop offset="0.102" stop-color="#880009"/><stop offset="0.235" stop-color="#b20006"/><stop offset="0.449" stop-color="#d30003"/><stop offset="0.544" stop-color="#de0002"/><stop offset="0.652" stop-color="#eb0001"/><stop offset="0.841" stop-color="#fa0000"/><stop offset="0.933" stop-color="red"/><stop offset="1" stop-color="red"/></linearGradient></defs><g id="el_rUnn1hMSxU"><g id="el_tVsiUQouqX"><path d="M328.656,109.44l-54.609,22.141v12.362L328.656,121.8Z" id="el_WI7glCAiMx"/><path d="M328.656,143.943,274.047,121.8V109.44l54.609,22.141Z" id="el_fDC7N859Qg"/><text font-size="21" font-family="Graphik" font-weight="800" id="el_Zurj2brRPg"><tspan x="0" y="0" id="el_Rxq9yzGbqm">PMO</tspan></text></g><g id="el_DxQb2E4Eje"><path d="M14.866,12.165h2.882V.56H14.866ZM29.447,4.409c0-2.124-1.441-3.83-4.437-3.83H18.98V12.2h2.787V3.044H25.2A1.3,1.3,0,0,1,26.64,4.409a1.288,1.288,0,0,1-1.46,1.346H22.791L26.413,12.2h2.863s-2.484-4.209-2.465-4.209a3.564,3.564,0,0,0,2.636-3.584M5.859.541,0,12.165H3.489l.872-1.858h4L7.11,7.747H5.537L7.016,4.561l3.754,7.585h3.489L8.172.541ZM60.334,5.035c-2.351-.512-3.129-.739-3.129-1.479,0-.664.853-.986,2.181-.986a7.973,7.973,0,0,1,3.7,1.081l.91-2.351A12.856,12.856,0,0,0,58.836.2c-2.825,0-4.608,1.65-4.608,3.679s1.46,2.92,4.342,3.527c2.237.474,2.844.758,2.844,1.46s-.891.948-2.1.948A11.661,11.661,0,0,1,54.8,8.676l-.853,2.294a12.836,12.836,0,0,0,5.575,1.422c3.508,0,4.949-1.688,4.949-3.641,0-1.725-1.214-3.072-4.134-3.716M50.171.522V7.045a2.487,2.487,0,0,1-2.6,2.825c-1.441,0-2.6-.834-2.6-2.825V.522H42.094V7.064c0,4.172,2.446,5.385,5.48,5.385s5.5-1.214,5.5-5.385V.522ZM39.686,6.192a2.731,2.731,0,0,0,1.043-2.37A3.348,3.348,0,0,0,37.315.541H30.508v11.6h7.072a3.55,3.55,0,0,0,3.641-3.413,2.929,2.929,0,0,0-1.536-2.541M33.315,3.006h4a1,1,0,0,1,1,.986,1.029,1.029,0,0,1-1.043.986H33.3l.019-1.972ZM37.391,9.7H33.315V7.424h4.077A1.2,1.2,0,0,1,38.6,8.562,1.183,1.183,0,0,1,37.391,9.7" id="el_pwkYT0FUz6"/></g><text font-size="15" font-family="Graphik" font-weight="800" id="el_7Aap-4x2qu"><tspan x="0" y="0" id="el_PwpUKOJDfy">in</tspan></text></g></svg>