<svg xmlns="http://www.w3.org/2000/svg" xmlns:xlink="http://www.w3.org/1999/xlink" width="385.664" height="285.493" viewBox="0 0 385.664 285.493">
  <defs>
    <linearGradient id="linear-gradient" y1="0.854" x2="1" y2="0.197" gradientUnits="objectBoundingBox">
      <stop offset="0" stop-color="#0bf"/>
      <stop offset="0.109" stop-color="#01b4ff"/>
      <stop offset="0.267" stop-color="#06a0ff"/>
      <stop offset="0.454" stop-color="#0d81ff"/>
      <stop offset="0.664" stop-color="#1755ff"/>
      <stop offset="0.891" stop-color="#241dff"/>
      <stop offset="1" stop-color="#2b00ff"/>
    </linearGradient>
    <filter id="Trazado_1315" x="0" y="87.988" width="356.273" height="127.818" filterUnits="userSpaceOnUse">
      <feOffset dy="3" input="SourceAlpha"/>
      <feGaussianBlur stdDeviation="3" result="blur"/>
      <feFlood flood-opacity="0.161"/>
      <feComposite operator="in" in2="blur"/>
      <feComposite in="SourceGraphic"/>
    </filter>
  </defs>
  <g id="Grupo_1676" data-name="Grupo 1676" transform="translate(-22364.619 -766)">
    <g id="Grupo_1675" data-name="Grupo 1675" transform="translate(2209.123 926.999)">
      <path id="Trazado_1311" data-name="Trazado 1311" d="M548.953,109.44,274.047,220.9V283.13L548.953,171.672Z" transform="translate(19992.207 -158.636)" fill="url(#linear-gradient)"/>
      <path id="Trazado_1312" data-name="Trazado 1312" d="M548.953,283.13,274.047,171.672V109.44L548.953,220.9Z" transform="translate(19992.207 -270.439)" fill="#0bf"/>
    </g>
    <g transform="matrix(1, 0, 0, 1, 22364.62, 766)" filter="url(#Trazado_1315)">
      <path id="Trazado_1315-2" data-name="Trazado 1315" d="M.62-44.33h14.2L19.9-17.856,25.234-44.33H37.448l6.014,26.784L48.856-44.33h13.02L51.584,0h-14.2l-6.2-26.474L24.924,0H10.912Zm65.968,0h31.5v10.788H80.6v6.262H94.488v9.858H80.6v6.634H99.076V0H66.588Zm38.44,0H119.1v33.542h16.12V0H105.028ZM161.138.806A30.046,30.046,0,0,1,150.691-.837a19.662,19.662,0,0,1-7.347-4.619A18.693,18.693,0,0,1,139-12.617a28.6,28.6,0,0,1-1.426-9.269v-.5a24.136,24.136,0,0,1,1.736-9.331,20.772,20.772,0,0,1,4.8-7.13A21.45,21.45,0,0,1,151.4-43.4a25.307,25.307,0,0,1,9.114-1.612,29.956,29.956,0,0,1,8.184,1.054,18.488,18.488,0,0,1,6.448,3.193,16.024,16.024,0,0,1,4.4,5.425,20.858,20.858,0,0,1,2.046,7.812H167.09a7.636,7.636,0,0,0-1.922-4.743,6.138,6.138,0,0,0-4.588-1.643A7.078,7.078,0,0,0,154.566-31q-2.17,2.914-2.17,8.556v.5q0,5.58,2.17,8.525a7.3,7.3,0,0,0,6.262,2.945,7.708,7.708,0,0,0,4.96-1.581,6.968,6.968,0,0,0,2.356-4.929h14.012A20.494,20.494,0,0,1,180.2-9.269,16.226,16.226,0,0,1,175.77-3.72a19.5,19.5,0,0,1-6.51,3.379A27.453,27.453,0,0,1,161.138.806ZM208.692-10.23a8.006,8.006,0,0,0,6.6-3.069q2.449-3.069,2.449-8.649v-.5q0-5.642-2.48-8.618a8.263,8.263,0,0,0-6.7-2.976,8.075,8.075,0,0,0-6.541,2.945q-2.449,2.945-2.449,8.649v.5q0,5.7,2.449,8.711A8.138,8.138,0,0,0,208.692-10.23ZM208.32.806a27.509,27.509,0,0,1-9.8-1.643,20.8,20.8,0,0,1-7.378-4.65,20.189,20.189,0,0,1-4.65-7.192,25.414,25.414,0,0,1-1.612-9.207v-.5a23.061,23.061,0,0,1,1.829-9.331,21.015,21.015,0,0,1,5.022-7.13,22.559,22.559,0,0,1,7.533-4.557,26.5,26.5,0,0,1,9.3-1.612,28.615,28.615,0,0,1,9.455,1.519,22.1,22.1,0,0,1,7.564,4.371,19.857,19.857,0,0,1,4.991,6.975,23.287,23.287,0,0,1,1.8,9.393v.5a25.171,25.171,0,0,1-1.705,9.455A20.307,20.307,0,0,1,225.8-5.549a22.3,22.3,0,0,1-7.6,4.681A27.808,27.808,0,0,1,208.32.806ZM238.08-44.33h18.228l7.5,21.514,7.626-21.514h17.856V0h-13.95V-26.164L265.236,0h-4.712L250.6-26.164V0H238.08Zm59.4,0h31.5v10.788H311.488v6.262h13.888v9.858H311.488v6.634h18.476V0H297.476ZM25.482,53.77a8.006,8.006,0,0,0,6.6-3.069q2.449-3.069,2.449-8.649v-.5q0-5.642-2.48-8.618a8.263,8.263,0,0,0-6.7-2.976,8.075,8.075,0,0,0-6.541,2.945q-2.449,2.945-2.449,8.649v.5q0,5.7,2.449,8.711A8.138,8.138,0,0,0,25.482,53.77ZM25.11,64.806a27.509,27.509,0,0,1-9.8-1.643,20.8,20.8,0,0,1-7.378-4.65,20.189,20.189,0,0,1-4.65-7.192,25.414,25.414,0,0,1-1.612-9.207v-.5A23.061,23.061,0,0,1,3.5,32.287a21.015,21.015,0,0,1,5.022-7.13A22.559,22.559,0,0,1,16.058,20.6a26.5,26.5,0,0,1,9.3-1.612,28.614,28.614,0,0,1,9.455,1.519,22.1,22.1,0,0,1,7.564,4.371,19.857,19.857,0,0,1,4.991,6.975,23.287,23.287,0,0,1,1.8,9.393v.5A25.171,25.171,0,0,1,47.461,51.2a20.307,20.307,0,0,1-4.867,7.254A22.305,22.305,0,0,1,35,63.132,27.808,27.808,0,0,1,25.11,64.806ZM54.87,19.67H70.618L83.2,43.106V19.67H95.542V64H82.088L67.27,37.464V64H54.87Zm60.264,0H136.09a23.63,23.63,0,0,1,6.975.9,13.009,13.009,0,0,1,4.681,2.449,9.326,9.326,0,0,1,2.635,3.658,12.322,12.322,0,0,1,.837,4.588v.248a9.525,9.525,0,0,1-1.984,6.293,10.135,10.135,0,0,1-5.7,3.255,11.484,11.484,0,0,1,6.386,3.193q2.48,2.511,2.48,7.161v.248q0,5.89-3.937,9.114T135.966,64H115.134ZM133.3,54.762a5.644,5.644,0,0,0,4-1.209,4.523,4.523,0,0,0,1.271-3.441v-.248a4.284,4.284,0,0,0-1.3-3.348,6.3,6.3,0,0,0-4.278-1.178h-4.154v9.424Zm-.186-17.794a5.839,5.839,0,0,0,3.72-.93,3.662,3.662,0,0,0,1.116-2.976v-.248a3.722,3.722,0,0,0-1.147-2.976,5.7,5.7,0,0,0-3.751-.992h-4.216v8.122Zm46.562,16.8a8.006,8.006,0,0,0,6.6-3.069q2.449-3.069,2.449-8.649v-.5q0-5.642-2.48-8.618a8.263,8.263,0,0,0-6.7-2.976,8.075,8.075,0,0,0-6.541,2.945q-2.449,2.945-2.449,8.649v.5q0,5.7,2.449,8.711A8.138,8.138,0,0,0,179.676,53.77ZM179.3,64.806a27.509,27.509,0,0,1-9.8-1.643,20.8,20.8,0,0,1-7.378-4.65,20.189,20.189,0,0,1-4.65-7.192,25.414,25.414,0,0,1-1.612-9.207v-.5a23.061,23.061,0,0,1,1.829-9.331,21.015,21.015,0,0,1,5.022-7.13,22.559,22.559,0,0,1,7.533-4.557,26.5,26.5,0,0,1,9.3-1.612,28.614,28.614,0,0,1,9.455,1.519,22.1,22.1,0,0,1,7.564,4.371,19.857,19.857,0,0,1,4.991,6.975,23.287,23.287,0,0,1,1.8,9.393v.5a25.171,25.171,0,0,1-1.705,9.455,20.308,20.308,0,0,1-4.867,7.254,22.3,22.3,0,0,1-7.6,4.681A27.808,27.808,0,0,1,179.3,64.806ZM217.372,19.67h18.166L249.426,64h-14.88L232.5,56.622H218.488L216.5,64H203.422Zm3.782,27.4H229.9l-4.34-16.058Zm32.86-27.4h18.1q9.238,0,13.888,3.627t4.65,10.757V34.3a11.794,11.794,0,0,1-2.108,7.347,13.857,13.857,0,0,1-5.394,4.247L293.26,64H278.5l-8.246-15.19h-2.232V64H254.014Zm17.3,20.088q5.766,0,5.766-4.836v-.248a3.945,3.945,0,0,0-1.426-3.441,7.339,7.339,0,0,0-4.278-1.023h-3.348v9.548Zm43.152,13.454q5.208,0,7.5-2.666t2.294-8.494v-.5q0-6.076-2.387-8.587T314.4,30.458h-2.294V53.212ZM298.034,19.67H314.96q11.966,0,17.949,5.518t5.983,16.12v.434q0,10.664-6.076,16.461T314.96,64H298.034Z" transform="translate(8.38 139)" fill="#fff"/>
    </g>
  </g>
</svg>
