<svg xmlns="http://www.w3.org/2000/svg" width="25" height="25" viewBox="0 0 25 25">
  <g id="Grupo_1492" data-name="Grupo 1492" transform="translate(-1527 -966)">
    <circle id="Elipse_515" data-name="Elipse 515" cx="12.5" cy="12.5" r="12.5" transform="translate(1527 966)" fill="red"/>
    <path id="Trazado_1205" data-name="Trazado 1205" d="M2.432.112a1.261,1.261,0,0,1-.9-.36,1.163,1.163,0,0,1-.376-.872,1.181,1.181,0,0,1,.376-.888,1.261,1.261,0,0,1,.9-.36,1.28,1.28,0,0,1,.92.36,1.181,1.181,0,0,1,.376.888,1.163,1.163,0,0,1-.376.872A1.28,1.28,0,0,1,2.432.112ZM1.376-11.44h2.16l-.3,8H1.664Z" transform="translate(1537 984)" fill="#fff"/>
  </g>
</svg>
